<?xml version="1.0" encoding="UTF-8"?>
<svg id="Layer_1" data-name="Layer 1" xmlns="http://www.w3.org/2000/svg" version="1.1" xmlns:xlink="http://www.w3.org/1999/xlink" viewBox="0 0 301.7 158.8">
  <defs>
    <style>
      .cls-1 {
        fill: url(#linear-gradient-12);
      }

      .cls-1, .cls-2, .cls-3, .cls-4, .cls-5, .cls-6, .cls-7, .cls-8, .cls-9, .cls-10, .cls-11, .cls-12, .cls-13, .cls-14, .cls-15, .cls-16, .cls-17, .cls-18, .cls-19, .cls-20, .cls-21, .cls-22, .cls-23, .cls-24, .cls-25, .cls-26, .cls-27, .cls-28, .cls-29, .cls-30, .cls-31 {
        stroke-width: 0px;
      }

      .cls-2 {
        fill: url(#linear-gradient-17);
      }

      .cls-3 {
        fill: url(#linear-gradient-19);
      }

      .cls-4 {
        fill: url(#linear-gradient);
      }

      .cls-5 {
        fill: url(#linear-gradient-21);
      }

      .cls-6 {
        fill: url(#linear-gradient-6);
      }

      .cls-7 {
        fill: url(#linear-gradient-15);
      }

      .cls-8 {
        fill: url(#linear-gradient-11);
      }

      .cls-9 {
        fill: url(#linear-gradient-5);
      }

      .cls-10 {
        fill: url(#linear-gradient-13);
      }

      .cls-11 {
        fill: url(#linear-gradient-23);
      }

      .cls-12 {
        fill: url(#linear-gradient-25);
      }

      .cls-13 {
        fill: url(#linear-gradient-16);
      }

      .cls-14 {
        fill: url(#linear-gradient-22);
      }

      .cls-15 {
        fill: url(#linear-gradient-20);
      }

      .cls-16 {
        fill: url(#linear-gradient-14);
      }

      .cls-17 {
        fill: url(#linear-gradient-2);
      }

      .cls-18 {
        fill: url(#linear-gradient-7);
      }

      .cls-19 {
        fill: url(#radial-gradient-2);
      }

      .cls-20 {
        fill: url(#linear-gradient-3);
      }

      .cls-21 {
        fill: url(#linear-gradient-9);
      }

      .cls-22 {
        fill: url(#radial-gradient);
      }

      .cls-23 {
        fill: #1cb75e;
        opacity: .4;
      }

      .cls-24 {
        fill: url(#linear-gradient-8);
      }

      .cls-25 {
        fill: url(#linear-gradient-24);
      }

      .cls-26 {
        fill: url(#linear-gradient-26);
      }

      .cls-27 {
        fill: url(#linear-gradient-18);
      }

      .cls-28 {
        fill: url(#linear-gradient-10);
      }

      .cls-29 {
        fill: url(#radial-gradient-3);
      }

      .cls-30 {
        fill: url(#linear-gradient-4);
      }

      .cls-31 {
        fill: url(#radial-gradient-4);
      }
    </style>
    <radialGradient id="radial-gradient" cx="111.3" cy="127.7" fx="111.3" fy="127.7" r="158" gradientUnits="userSpaceOnUse">
      <stop offset="0" stop-color="#00a691"/>
      <stop offset=".3" stop-color="#00a292"/>
      <stop offset=".5" stop-color="#029999"/>
      <stop offset=".7" stop-color="#0588a3"/>
      <stop offset=".9" stop-color="#0a71b1"/>
      <stop offset=".9" stop-color="#0b70b3"/>
      <stop offset=".9" stop-color="#08a64c"/>
    </radialGradient>
    <radialGradient id="radial-gradient-2" cx="44" cy="107.4" fx="44" fy="107.4" r="151.6" gradientUnits="userSpaceOnUse">
      <stop offset="0" stop-color="#00a691"/>
      <stop offset=".4" stop-color="#00a392"/>
      <stop offset=".6" stop-color="#029998"/>
      <stop offset=".8" stop-color="#058aa2"/>
      <stop offset=".9" stop-color="#0a74b0"/>
      <stop offset="1" stop-color="#0b70b3"/>
      <stop offset="1" stop-color="#08a64c"/>
    </radialGradient>
    <linearGradient id="linear-gradient" x1="178.2" y1="173.4" x2="67.9" y2="16.7" gradientUnits="userSpaceOnUse">
      <stop offset=".4" stop-color="#00a691"/>
      <stop offset=".6" stop-color="#00a392"/>
      <stop offset=".7" stop-color="#029998"/>
      <stop offset=".8" stop-color="#058aa2"/>
      <stop offset=".9" stop-color="#0a74b0"/>
      <stop offset=".9" stop-color="#0b70b3"/>
      <stop offset="1" stop-color="#08a64c"/>
    </linearGradient>
    <radialGradient id="radial-gradient-3" cx="129.6" cy="114.8" fx="108.9" fy="114.8" r="60.5" gradientUnits="userSpaceOnUse">
      <stop offset="0" stop-color="#00a691"/>
      <stop offset=".4" stop-color="#00a392"/>
      <stop offset=".6" stop-color="#029998"/>
      <stop offset=".8" stop-color="#058aa2"/>
      <stop offset=".9" stop-color="#0a74b0"/>
      <stop offset=".9" stop-color="#0b70b3"/>
    </radialGradient>
    <linearGradient id="linear-gradient-2" x1="165.7" y1="130.7" x2="47.8" y2="11.7" gradientUnits="userSpaceOnUse">
      <stop offset=".4" stop-color="#00a691"/>
      <stop offset=".6" stop-color="#00a392"/>
      <stop offset=".7" stop-color="#029998"/>
      <stop offset=".8" stop-color="#058aa2"/>
      <stop offset=".9" stop-color="#0a74b0"/>
      <stop offset=".9" stop-color="#0b70b3"/>
      <stop offset="1" stop-color="#08a64c"/>
    </linearGradient>
    <linearGradient id="linear-gradient-3" x1="108.5" y1="8.8" x2="21.1" y2="60.1" xlink:href="#linear-gradient"/>
    <linearGradient id="linear-gradient-4" x1="39" y1="101.4" x2="190" y2="19.7" xlink:href="#linear-gradient"/>
    <linearGradient id="linear-gradient-5" x1="116.2" y1="30.1" x2="14.9" y2="57" xlink:href="#linear-gradient"/>
    <linearGradient id="linear-gradient-6" x1="205.4" y1="134.4" x2="270.1" y2="-13.1" xlink:href="#linear-gradient"/>
    <linearGradient id="linear-gradient-7" x1="190.1" y1="80.1" x2="165.1" y2="19.7" xlink:href="#linear-gradient"/>
    <radialGradient id="radial-gradient-4" cx="169.4" cy="114.3" fx="169.4" fy="114.3" r="149.2" gradientUnits="userSpaceOnUse">
      <stop offset="0" stop-color="#00a691"/>
      <stop offset=".5" stop-color="#00a492"/>
      <stop offset=".7" stop-color="#019d96"/>
      <stop offset=".8" stop-color="#04919d"/>
      <stop offset=".9" stop-color="#0780a8"/>
      <stop offset=".9" stop-color="#0b70b3"/>
      <stop offset=".9" stop-color="#08a64c"/>
    </radialGradient>
    <linearGradient id="linear-gradient-8" x1="201.5" y1="90.1" x2="171.2" y2="4.8" xlink:href="#linear-gradient"/>
    <linearGradient id="linear-gradient-9" x1="257.4" y1="95" x2="212.3" y2="44.4" gradientUnits="userSpaceOnUse">
      <stop offset=".5" stop-color="#00a691"/>
      <stop offset=".6" stop-color="#00a392"/>
      <stop offset=".7" stop-color="#029998"/>
      <stop offset=".8" stop-color="#058aa2"/>
      <stop offset=".9" stop-color="#0a74b0"/>
      <stop offset=".9" stop-color="#0b70b3"/>
      <stop offset=".9" stop-color="#08a64c"/>
    </linearGradient>
    <linearGradient id="linear-gradient-10" x1="247.5" y1="106.6" x2="202.4" y2="56" gradientUnits="userSpaceOnUse">
      <stop offset=".2" stop-color="#00a691"/>
      <stop offset=".4" stop-color="#00a392"/>
      <stop offset=".6" stop-color="#029998"/>
      <stop offset=".8" stop-color="#058aa2"/>
      <stop offset=".9" stop-color="#0a74b0"/>
      <stop offset=".9" stop-color="#0b70b3"/>
      <stop offset="1" stop-color="#08a64c"/>
    </linearGradient>
    <linearGradient id="linear-gradient-11" x1="273.2" y1="81.2" x2="228.1" y2="30.5" xlink:href="#linear-gradient-9"/>
    <linearGradient id="linear-gradient-12" x1="242.9" y1="180.5" x2="166.4" y2="123.3" gradientUnits="userSpaceOnUse">
      <stop offset="0" stop-color="#00a691"/>
      <stop offset="0" stop-color="#00a691"/>
      <stop offset=".4" stop-color="#00a392"/>
      <stop offset=".6" stop-color="#029998"/>
      <stop offset=".8" stop-color="#0589a2"/>
      <stop offset=".9" stop-color="#0a73b0"/>
      <stop offset=".9" stop-color="#0b70b3"/>
      <stop offset=".9" stop-color="#08a64c"/>
      <stop offset="1" stop-color="#08a64c"/>
    </linearGradient>
    <linearGradient id="linear-gradient-13" x1="247.7" y1="174.1" x2="171.3" y2="116.8" xlink:href="#linear-gradient-12"/>
    <linearGradient id="linear-gradient-14" x1="251.5" y1="169" x2="175.1" y2="111.8" xlink:href="#linear-gradient-12"/>
    <linearGradient id="linear-gradient-15" x1="254" y1="165.6" x2="177.6" y2="108.4" xlink:href="#linear-gradient-12"/>
    <linearGradient id="linear-gradient-16" x1="257.5" y1="161" x2="181.1" y2="103.8" xlink:href="#linear-gradient-12"/>
    <linearGradient id="linear-gradient-17" x1="260.4" y1="157.1" x2="184" y2="99.8" xlink:href="#linear-gradient-12"/>
    <linearGradient id="linear-gradient-18" x1="263.5" y1="152.9" x2="187.1" y2="95.7" xlink:href="#linear-gradient-12"/>
    <linearGradient id="linear-gradient-19" x1="267.5" y1="147.6" x2="191.1" y2="90.3" xlink:href="#linear-gradient-12"/>
    <linearGradient id="linear-gradient-20" x1="270.5" y1="143.6" x2="194.1" y2="86.4" xlink:href="#linear-gradient-12"/>
    <linearGradient id="linear-gradient-21" x1="274.9" y1="137.8" x2="198.4" y2="80.6" xlink:href="#linear-gradient-12"/>
    <linearGradient id="linear-gradient-22" x1="279.6" y1="131.4" x2="203.2" y2="74.2" xlink:href="#linear-gradient-12"/>
    <linearGradient id="linear-gradient-23" x1="142.5" y1="158.5" x2="177.3" y2="126.5" xlink:href="#linear-gradient-12"/>
    <linearGradient id="linear-gradient-24" x1="161.8" y1="151.7" x2="187.8" y2="127.7" xlink:href="#linear-gradient-12"/>
    <linearGradient id="linear-gradient-25" x1="187.4" y1="136.9" x2="178.4" y2="123.1" xlink:href="#linear-gradient-12"/>
    <linearGradient id="linear-gradient-26" x1="182.4" y1="122.9" x2="196.7" y2="143.2" gradientUnits="userSpaceOnUse">
      <stop offset="0" stop-color="#00a691"/>
      <stop offset=".1" stop-color="#00a691"/>
      <stop offset=".2" stop-color="#00a691"/>
      <stop offset=".9" stop-color="#0b70b3"/>
      <stop offset=".9" stop-color="#08a64c"/>
      <stop offset="1" stop-color="#08a64c"/>
    </linearGradient>
  </defs>
  <path class="cls-22" d="M156.9,99.3c-.8,2.7-1.3,5.6-2.2,8.1-1.6,4.2-3.4,8.3-5.6,12.2-15,26.9-48.3,38.3-77.7,33.5-14.8-2.4-28.8-9.7-44.1-8.6-8.2.6-15.6,4.2-20.6,10.8,0,0,0,0,0,0,2.9-12.6,10.7-24.9,22.1-31.3,14.6-8,32.2-5.2,47.1.3,6,2.2,11.6,3.6,16.8,4.4,3.6.7,7.3,1,11.1,1s.7,0,1.1,0c.1,0,.2,0,.3,0h0c5-.1,10-.8,14.7-2.1,5.1-1.4,9.9-3.4,14.5-6,1.7-1,3.4-2.1,5-3.2,6-4.3,11.1-9.5,15.2-15.6.8-1.1,1.5-2.3,2.2-3.4Z"/>
  <path class="cls-19" d="M156.9,99.3c-.8,2.7-1.3,5.6-2.2,8.1-1.6,4.2-3.4,8.3-5.6,12.2-15,26.9-48.3,38.3-77.7,33.5-14.8-2.4-28.8-9.7-44.1-8.6-8.2.6-15.6,4.2-20.6,10.8,0,0,0,0,0,0,3.7-7.7,12-29.9,67.2-16.3,65.9,16.3,82.6-38.9,83-39.7Z"/>
  <g>
    <path class="cls-4" d="M119.1,87c-1.9,5.3-5.3,10.1-9.6,13.7,0,0,0,0,0,0,2.4-3,5.7-8.3,3.8-12.8-.2-.5-1-.4-1,.2-.2,3.3-1.7,6.4-4.6,8-1.2.7-2.4,1.1-3.7,1.4-2.1.5-4.4.5-6.5,0-4.5-1-8.3-4.2-10.6-8.1-3.3-5.4-3.8-11.8-2.5-17.9,1-4.5,2.9-8.7,5.6-12.4,2.7-3.7,6.1-6.8,10.1-9.1,2.7-1.6,5.6-2.8,8.7-3.5,3.9-.9,7.8-.9,11.8-.6,1,0-.1,1.8-.3,2.2-1.7,4-1.5,7.9-.9,12,.5,3.4,1.2,6.9,1.6,10.4h0c.4,5.6,0,11.2-1.9,16.4Z"/>
    <path class="cls-29" d="M105.1,112.7s0,0,0,0c0,0,.2,0,.3,0,3.9-.1,7.8-.8,11.6-2,0,0,0,0,0,0,5-1.6,9.2-5.1,11.4-9.9,3.2-6.8,3.9-14.6.9-21.9-.7-1.6-1.3-3.2-2.3-4.5-1-1.4-1.9-2.8-3-4h0c0,.1,0,.2,0,.2.4,5.6,0,11.1-1.9,16.4-1.9,5.3-5.3,10.1-9.6,13.7,0,0,0,0,0,0-1.1,1-2.3,1.8-3.6,2.6-.5.3-1,.6-1.4.9-.4.2-.8.5-1.3.7-7.4,3.7-16,4.5-23.9,2.4,6.5,3.6,13.8,5.4,21.4,5.4s.9,0,1.3,0Z"/>
  </g>
  <path class="cls-23" d="M31.8,57.8s0,0,0,0h0s0,0,0,0Z"/>
  <path class="cls-23" d="M31.8,57.8s0,0,0,0h0s0,0,0,0Z"/>
  <path class="cls-17" d="M161.8,68.2c0,1.3,0,2.6-.1,3.8-.1,1.7-.3,3.4-.6,5,0,.7-.2,1.3-.3,1.9,0,0,0,.1,0,.2-1.5,7.9-4.6,15.2-9,21.6-3.9,5.7-8.7,10.7-14.3,14.7-1.5,1.1-3.1,2.1-4.7,3-4.2,2.4-8.8,4.4-13.7,5.7-4.4,1.2-9.1,1.9-13.9,2h0c-.5,0-.9,0-1.4,0-32,0-58-26-58-58,1.6.4,3.1.6,4.6.8.3,0,.6,0,.9,0,.6,28.5,23.9,51.4,52.5,51.4s52.5-23.5,52.5-52.5-.4-7.4-1.1-11c-.7-3.5-1.9-6.9-3.3-10.2-1.4-3.2-3.2-6.3-5.2-9.2-2-2.9-4.4-5.5-6.9-7.9-2.6-2.4-5.4-4.5-8.4-6.4-3-1.9-6.2-3.4-9.6-4.6-3.4-1.2-6.9-2.1-10.5-2.6-2.6-.4-5.2-.5-7.7-.5-1.2,0-2.4,0-3.7,0-2.4-.1-4.7-.6-6.9-1.4-2.5-1-4.7-2.7-6.1-5.1-1-1.7-1.5-3.5-1.6-5.4,0,0,0,0,0,0,1.6,3.2,5.8,4.8,9,5.5,4.3,1,8.7,1,13.1,1.2,9.9.5,19.6,3.7,28,9.1,1.6,1,3.1,2.1,4.6,3.3,5.7,4.5,10.5,10.1,14.2,16.5,3.7,6.5,6.2,13.6,7.2,21,.3,1.9.4,3.8.5,5.8,0,.3,0,.5,0,.8h0c0,.3,0,.5,0,.7,0,0,0,.1,0,.2,0,.2,0,.3,0,.5Z"/>
  <path class="cls-20" d="M40.7,56.9c.7-.3,1.3-.6,1.9-1,4.2-2.7,6.2-7.1,6.7-8.5.1-.3.2-.5.2-.5,6.1-15.9,18.9-28.4,35-34.1,0,.1.1.3.2.4.3.5.6,1,.9,1.5.2.3.5.7.7,1-16.1,5.6-28.9,18.4-34.3,34.7,0,0,0,.2,0,.3-.1.6-1.7,6.2-10.1,6.2s-.8,0-1.2,0Z"/>
  <path class="cls-30" d="M53.8,69.1c.7,0,1.4,0,2,0,.2,12.4,5.1,23.7,13.1,32.1,8.7,9.2,21.1,15,34.8,15s1,0,1.4,0h0c4.5-.1,8.7-.8,12.8-2.1,19.5-6.1,33.7-24.3,33.7-45.8s-8.3-31-20.9-39.6c-1-.7-2.1-1.4-3.2-2-6.6-3.8-14.2-6-22.3-6.3h0c-1.1,0-2.2-.1-3.2-.2-.1,0-.2,0-.3,0-.4,0-.8-.1-1.2-.2-.6,0-1.2-.2-1.7-.3h0c-.9-.2-1.8-.5-2.6-.7-2.6-.9-4.6-2.1-6.1-3.4.6.3,1.2.7,1.9.9,2.3.9,4.9,1.5,7.7,1.6.4,0,.8,0,1.3,0s1.2,0,1.8,0h.7c.3,0,.7,0,1,0,2,0,4.1.2,6.3.5,3.4.5,6.8,1.3,10,2.5,3.2,1.2,6.2,2.6,9.1,4.4,2.8,1.8,5.5,3.8,8,6.1,2.4,2.3,4.7,4.8,6.6,7.5,1.9,2.7,3.6,5.7,5,8.7,1.4,3.1,2.4,6.4,3.2,9.7.7,3.4,1.1,6.9,1.1,10.4,0,27.5-22.4,50-50,50s-49.3-21.8-49.9-48.7Z"/>
  <path class="cls-9" d="M60,50.3c0-.2.2-.3.3-.5,1.6-1.7,4.7-1,6.1.7,3.2,3.7,1.2,9.5-2,12-1.5,1.2-3.3,2-5.2,2.5-.8.2-1.6.3-2.5.5,0,0,0,0,0,0,0,0-.2,0-.3,0,0,0,0,0-.1,0-.2,0-.4,0-.6,0-.7,0-1.3,0-2,0h0c-2.6,0-5.3-.4-7.8-1,0,0,0,0,0,0-.8-.2-1.6-.4-2.4-.7-1.6-.5-3.2-1.1-4.7-1.9-1.8-.8-3.5-1.8-5.1-2.9-.5-.3-.9-.6-1.4-1,0,0-.2-.1-.2-.2,3.9,1.2,7,1.6,9.7,1.6,0,0,.1,0,.2,0,10.3,0,12.3-7.3,12.6-8.2,5.1-15.4,17.4-27.8,32.7-33.1l1-.4c1.5,1.4,3.4,2.7,5.8,3.7-15.6,3.3-28.3,14.2-34.1,28.8Z"/>
  <path class="cls-23" d="M166.4,57.8s0,0,0,0h0s0,0,0,0Z"/>
  <path class="cls-23" d="M166.4,57.8s0,0,0,0h0s0,0,0,0Z"/>
  <g>
    <path class="cls-6" d="M262.9,116.1c1.1-.7,2.1-1.5,3.1-2.3,1.3-1.1,2.6-2.2,3.8-3.3.5-.5.9-.9,1.4-1.4,0,0,0,0,.1-.1,5.6-5.7,9.8-12.5,12.6-19.7,2.5-6.4,3.8-13.3,3.8-20.1,0-1.9,0-3.7-.2-5.6-.4-4.9-1.5-9.7-3.1-14.5-1.5-4.3-3.6-8.6-6.3-12.6h0c-.3-.4-.5-.8-.8-1.1-18.3-26.3-54.5-32.7-80.8-14.4,1.2,1.1,2.3,2.2,3.3,3.3.2.2.4.5.6.7,23.7-15.8,55.8-9.8,72.2,13.7,16.6,23.8,10.8,56.5-13,73.1-3,2.1-6.3,3.9-9.7,5.3-3.3,1.4-6.8,2.4-10.3,3.1-3.5.7-7,1-10.5,1-3.5,0-7-.4-10.4-1.1-3.4-.7-6.8-1.8-10-3.2-3.3-1.4-6.4-3.2-9.3-5.2-3-2.1-5.7-4.5-8.2-7.1-1.8-1.9-3.4-3.9-4.8-6.1-.7-1-1.3-2.1-2.1-3-1.5-1.9-3.2-3.6-5.1-4.8-2.3-1.5-5-2.3-7.7-2.1-1.9.2-3.7.8-5.4,1.8,0,0,0,0,0,0,3.6-.5,7.2,2,9.7,4.2,3.3,3,5.8,6.6,8.5,10.1,6.1,7.8,14.3,14,23.4,17.7,1.8.7,3.5,1.3,5.4,1.9,7,2.1,14.4,2.8,21.6,2.2,7.4-.6,14.7-2.7,21.3-6.1,1.7-.9,3.4-1.8,5-2.9.2-.1.4-.3.7-.4h0c.2-.2.3-.3.5-.4,0,0,.1,0,.2-.1.1,0,.3-.2.4-.3Z"/>
    <path class="cls-18" d="M185.1,24.2c4.8,6.9,1.1,11.4.7,11.8,0,0-.1.1-.2.2-10.2,13.7-13.5,31.5-8.8,48-.4,0-.8,0-1.2,0-.6,0-1.2,0-1.8.1-.2,0-.3,0-.5,0-4.6-16.4-1.6-34.1,7.9-48.2,0,0,.1-.1.3-.4.9-1.3,3.3-5.4,3.1-10.4,0-.7-.1-1.4-.2-2.1.2.3.5.6.7.9Z"/>
    <path class="cls-31" d="M201.9,27c.4.6.8,1.1,1.1,1.7,10.3-6.9,22.4-9.3,33.8-7.6,12.6,1.9,24.4,8.7,32.2,20,.3.4.5.8.8,1.2h0c2.4,3.7,4.3,7.7,5.6,11.7,6.2,19.5-.6,41.5-18.3,53.8-13.5,9.4-30.1,10.9-44.4,5.5-1.2-.4-2.4-.9-3.5-1.5-6.9-3.3-13.1-8.2-17.9-14.7h0c-.7-.9-1.3-1.7-2-2.5,0,0-.1-.2-.2-.2-.3-.3-.5-.6-.8-.9-.4-.4-.8-.8-1.2-1.2h0c-.7-.7-1.4-1.2-2.1-1.7-2.2-1.6-4.3-2.6-6.3-3.1.6.3,1.2.6,1.9,1,2.1,1.3,4,3.2,5.8,5.4.3.3.5.7.8,1.1s.7,1,1,1.5l.4.6c.2.3.4.6.6.9,1.2,1.7,2.5,3.3,4,4.9,2.3,2.5,5,4.8,7.8,6.8,2.8,1.9,5.7,3.6,8.8,4.9,3.1,1.3,6.3,2.3,9.5,3,3.3.7,6.6,1.1,9.9,1.1,3.4,0,6.7-.3,10-.9,3.3-.7,6.6-1.7,9.8-3,3.2-1.4,6.3-3.1,9.2-5.1,22.6-15.8,28.2-47,12.4-69.6-15.4-22.1-46.1-27.9-68.5-13.1Z"/>
    <path class="cls-24" d="M189.9,42.9c0,.2-.1.4-.2.6-.5,2.2,1.9,4.4,4,4.6,4.9.5,8.5-4.4,8.7-8.5.1-2-.3-3.9-1-5.7-.3-.8-.6-1.5-1-2.3,0,0,0,0,0,0,0,0,0-.1-.1-.2,0,0,0,0,0-.1,0-.2-.2-.3-.3-.5-.3-.6-.7-1.1-1.1-1.7h0c-1.5-2.2-3.3-4.1-5.3-5.9,0,0,0,0,0,0-.6-.5-1.3-1-1.9-1.5-1.3-1-2.8-1.9-4.2-2.8-1.7-1-3.5-1.8-5.3-2.6-.5-.2-1.1-.4-1.6-.6,0,0-.2,0-.3,0,3.2,2.5,5.4,4.8,6.8,7,0,0,0,.1.1.2,5.9,8.4,1.1,14.3.4,15-9.7,13-12.9,30.1-8.4,45.8l.3,1.1c2,.4,4.1,1.2,6.3,2.7-6.2-14.7-4.5-31.4,4.1-44.4Z"/>
    <g>
      <path class="cls-21" d="M223.8,63.2v7.2c2.1.5,3.5,1.5,4.4,3.1.8,1.7,1.7,2.2,2.5,1.5v-10.9c0-.6,0-1.1-.2-1.4s-.4-.5-.8-.5-.8.3-1.1.9c-.3.6-.3,1.2,0,1.9.4.3.7,0,.8-.6.3,0,.6,0,.8.3.3.3.5.7.5,1.2,0,1.3-.5,2-1.6,2-.8,0-1.3-.5-1.7-1.3-.4-.8-.5-1.8-.5-2.8,0-.2,0-.3,0-.5.4-2.3,2.1-3.5,4.9-3.5,1.1,0,2.1.6,3.1,1.5.7.9,1.1,1.9,1.1,3.1h0v1.3h0v9.5c-.4,2.8-1.8,4.2-4.3,4.2s-3.8-.9-4.9-2.6c-.7-1.7-1.8-2.8-3.1-3.3v2.4c0,.4.1.9.4,1.4-1.5,1.3-2.9,2-4.3,2-.1,0-.3,0-.4,0-2.8,0-4.4-1.4-4.7-4,0-1.1.1-2,.5-2.7s1.1-1.3,2.2-1.8l.8-.4v-9.6c-1.8-.4-3.2-1.8-4.2-4.2.5,0,1-.2,1.6-.7.2-.2.5-.4.8-.6,2.5-1.7,4.9-2.5,7-2.5,1.9,0,4.2.9,7,2.7,1.2.6,2.7.2,4.5-1.2,1.3-1.1,2.9-1.6,4.7-1.6,1.7,0,3.6.6,5.7,1.8l3.9,2.2c-.5.3-.9.7-1,1.3v16.9c0,1.2-.4,2.3-1.3,3.1-.9.9-1.9,1.3-3.1,1.3s-2.2-.4-3.1-1.3c1.3,0,2-.5,2.1-1.8v-17.7c0-2.4-1.1-3.6-3.2-3.7-1.4,0-2.5.4-3.4,1.2-.9.8-1.9,1.4-3,2-1.1.6-2.9.4-5.2-.5-2.3-.9-4-1.3-5-1.4-1.2,0-2.1.1-2.9.4-.8.3-1.3.6-1.7.9,1,1.7,3.1,2.6,6.4,2.9-.6.3-1,.9-1.1,1.6v1.3ZM216.8,74.5c-.1.7,0,1.2.2,1.6s.5.6.7.6c.4,0,.6-.3.6-.9v-2.7c-.7.2-1.3.6-1.6,1.4Z"/>
      <path class="cls-28" d="M235.5,81.5h2.4v3s-2.4,0-2.4,0v.7c.8,0,1.5.2,2.1.7.6.4.9,1.1.9,2,0,1.5-.7,2.6-2.1,3.3-.5.2-1.2.4-2.2.5-.9,0-1.7-.2-2.3-.5-.8-.6-1.2-1-1.4-1.2v-2.1c-.7,0-1.6.5-2.7,1.5-.9,1.1-1.4,1.8-1.7,2.2-1.7,0-3.1-.2-4.1-.6-.8-.4-1.4-.7-1.8-1-.7-.7-1.2-1.4-1.5-2v-5.3l1.5-1.3h10.5v-1l4.7-1.2.9.9c0,0,0,.1-.2.2s-.2.3-.2.7v.5ZM230.4,84.5h-6.3v1.2c0,.5.1,1,.4,1.4.3.4.7.6,1.3.6s1.1-.4,1.6-1.3c.6-.9,1.5-1.3,2.9-1.3v-.7ZM236.3,88.7c0-.4-.3-.6-.9-.7v2.1c.2-.2.3-.3.5-.5.3-.3.4-.6.4-.9Z"/>
      <path class="cls-8" d="M245.6,43.8c0,1.5-.6,2.7-1.7,3.7-1.1,1-2.5,1.6-4.1,1.6s-3-.5-4.1-1.6c-1.1-1-1.7-2.3-1.7-3.7s.6-2.8,1.7-3.8c1.1-1,2.5-1.6,4.1-1.6s3,.5,4.1,1.6c1.1,1,1.7,2.3,1.7,3.8ZM241.9,43.8c0-1.8-.7-2.7-2-2.7s-2,.9-2,2.7.7,2.6,2,2.6,2-.9,2-2.6Z"/>
    </g>
  </g>
  <g>
    <g>
      <path class="cls-1" d="M194.7,143.9h-5.4l-.9,2h-2.1l4.7-10.4h2.1l4.7,10.4h-2.1l-.9-2ZM192,137.7l-1.9,4.4h3.9l-1.9-4.4Z"/>
      <polygon class="cls-10" points="205.5 135.5 207.4 135.5 207.4 145.9 206.2 145.9 206.2 145.9 200.7 138.9 200.7 145.9 198.8 145.9 198.8 135.5 200.4 135.5 205.5 141.9 205.5 135.5"/>
      <polygon class="cls-16" points="216 135.5 218 135.5 218 145.9 216.8 145.9 216.8 145.9 211.3 138.9 211.3 145.9 209.4 145.9 209.4 135.5 210.9 135.5 216 141.9 216 135.5"/>
      <rect class="cls-7" x="219.8" y="135.5" width="1.9" height="10.4"/>
      <polygon class="cls-13" points="229.2 145.9 227.2 145.9 222.9 135.5 225.1 135.5 228.2 143.6 231.3 135.5 233.5 135.5 229.2 145.9"/>
      <path class="cls-2" d="M242.5,145.9h-7.8v-10.4h7.8v1.9h-5.8v2.4h5.6v1.8h-5.6v2.3h5.8v1.9Z"/>
      <path class="cls-27" d="M253.2,145.9h-2.3l-3-3.5h-1.9v3.5h-2v-10.4c1.6,0,3.3,0,4.9,0,2.4,0,3.7,1.6,3.7,3.4s-.7,2.9-2.6,3.3l3.1,3.5h0ZM246,137.3v3.3h3c1.2,0,1.8-.8,1.8-1.7s-.5-1.7-1.8-1.7h-3Z"/>
      <path class="cls-3" d="M260.9,138c-.4-.6-1.3-1.2-2.5-1.2s-2.2.6-2.2,1.4,1.1,1.2,2.3,1.3c2.2.3,4.2.8,4.2,3.3s-2,3.3-4.4,3.3-3.8-.7-4.5-2.6l1.6-.8c.5,1.1,1.7,1.6,2.9,1.6s2.4-.4,2.4-1.6-1-1.4-2.4-1.5c-2.1-.3-4.1-.8-4.1-3.1s2.1-3,4-3c1.6,0,3.3.5,4.1,2.1l-1.6.8Z"/>
      <path class="cls-15" d="M271.6,143.9h-5.4l-.9,2h-2.1l4.7-10.4h2.1l4.7,10.4h-2.1l-.9-2ZM268.9,137.7l-1.9,4.4h3.9l-1.9-4.4Z"/>
      <path class="cls-5" d="M284.7,145.9h-2.3l-3-3.5h-1.9v3.5h-2v-10.4c1.6,0,3.3,0,4.9,0,2.4,0,3.7,1.6,3.7,3.4s-.7,2.9-2.6,3.3l3.1,3.5h0ZM277.5,137.3v3.3h3c1.2,0,1.8-.8,1.8-1.7s-.5-1.7-1.8-1.7h-3Z"/>
      <polygon class="cls-14" points="289.9 139.8 292.7 135.5 295 135.5 295 135.6 290.9 141.6 290.9 145.9 288.9 145.9 288.9 141.6 284.9 135.6 284.9 135.5 287.3 135.5 289.9 139.8"/>
    </g>
    <g>
      <path class="cls-11" d="M164.8,131.2h.9v17.1h-3.5v-13.5h-.3c-1.4.4-2.8-.4-3.1-1.8v-.4c0,0,3.1-.9,3.1-.9,1-.3,2-.4,3-.4Z"/>
      <path class="cls-25" d="M181.5,143.2c-.4,1-.9,1.9-1.5,2.7-.6.8-1.4,1.4-2.3,1.8-.9.4-1.9.7-3,.7s-2.1-.2-3-.6c-.9-.4-1.7-1-2.3-1.8-.6-.8-1.1-1.7-1.5-2.7-.3-1-.5-2.2-.5-3.4s.2-2.3.5-3.4c.4-1,.9-2,1.5-2.7.6-.8,1.4-1.4,2.3-1.8.9-.4,1.9-.7,3-.7s2.1.2,3,.6c.9.4,1.7,1,2.3,1.8.6.8,1.1,1.7,1.5,2.7.3,1,.5,2.2.5,3.3s-.2,2.3-.5,3.4ZM178,137.7c-.2-.6-.4-1.2-.7-1.7-.3-.5-.7-.8-1.1-1.1-.4-.3-.9-.4-1.5-.4s-1,.1-1.5.4c-.4.3-.8.6-1.1,1.1-.3.5-.6,1-.7,1.7-.2.6-.2,1.3-.2,2.1s0,1.5.3,2.1c.2.6.4,1.2.7,1.7.3.5.7.8,1.1,1.1.4.3.9.4,1.5.4s1-.1,1.5-.4c.4-.3.8-.6,1.1-1.1.3-.5.6-1,.7-1.7.2-.6.2-1.3.2-2.1s0-1.5-.3-2.1Z"/>
      <path class="cls-12" d="M183.6,132.9c-.2,0-.4,0-.7,0s-.5,0-.7,0c-.2,0-.4-.1-.5-.3-.1-.1-.3-.3-.3-.5s-.1-.5-.1-.8v-2.7h-.7v-1.4h.7v-1.4h1.6v1.4h1.3v1.4h-1.3v2.4c0,.4.2.5.5.5s.5,0,.8-.2v1.3c-.2,0-.4.2-.6.2Z"/>
      <path class="cls-26" d="M188.9,132.9v-3.1c0-.4,0-.7-.3-.9-.2-.2-.4-.3-.7-.3s-.6,0-.7.3c-.2.2-.3.5-.3.9v3.1h-1.6v-7.6h1.6v2.8c0-.1.2-.2.3-.3.1-.1.2-.2.4-.3s.3-.2.4-.2.3,0,.5,0c.6,0,1.1.2,1.4.6s.5.9.5,1.5v3.6h-1.6Z"/>
    </g>
  </g>
</svg>