<?xml version="1.0" encoding="UTF-8"?>
<svg id="Layer_1" data-name="Layer 1" xmlns="http://www.w3.org/2000/svg" version="1.1" viewBox="0 0 574.1 295">
  <defs>
    <style>
      .cls-1 {
        fill: #4da398;
        stroke-width: 0px;
      }
    </style>
  </defs>
  <g>
    <path class="cls-1" d="M37.5,154.1c2.2,1.8,3.3,4.5,3.3,7.9s-1.4,6.5-4.2,9.1c-2.8,2.7-6,4-9.6,4h-5v5.9c-.1,2.7,0,4.4.3,5.1.3.7,1,1,2.2,1l3.2-.2v.2c.1,0-.4,2.8-.4,2.8,0-.1-1.3-.2-4-.2s-5.1,0-7.2.2c-2.1.1-3.3.2-3.3.3l.4-2.8c1.8-.3,2.9-.8,3.5-1.4.6-.6.8-1.8.8-3.5v-25.2c0-1.3,0-2.1-.4-2.6-.3-.4-.9-.7-1.8-.7h-2c0,.1-.1-.1-.1-.1l.4-2.6c2.9.1,5.2.2,6.7.2l7.6-.2c4.2,0,7.4.9,9.6,2.8M35.8,163.2c0-3.1-.9-5.3-2.7-6.7-1.8-1.4-4.7-2.1-8.6-2.1s-1.2,0-1.3.1c-.2,0-.3.3-.3.7-.4,5.1-.6,10.6-.7,16.5l6.4.9c4.9-.8,7.3-3.9,7.3-9.4"/>
    <path class="cls-1" d="M55.4,168.6h6.2c0,0,7.3-.6,7.3-.6l.2.3-.8,3.5c-3.5-.1-6.1-.2-7.9-.2s-3.5.1-5.1.4c-.2,5.7-.2,9.5-.2,11.3s.3,2.8.8,3.2c.5.4,2.1.6,4.9.6s4.8-.2,6.3-.5c1.4-.3,2.4-1,3-1.9.6-.9,1.1-2.6,1.4-4.9l2.6-.3.2.3c-.7,3.3-1.3,6.7-1.6,10.1l-.3.3c-8.3-.3-13.8-.4-16.3-.4-3.9,0-7.3.2-10.2.6l.4-2.8c1.8-.2,3-.7,3.7-1.4.7-.7,1-1.9,1-3.6v-25.2c0-1.3,0-2.1-.4-2.6-.3-.4-.9-.7-1.8-.7h-2c0,.1-.1-.1-.1-.1l.4-2.6c3.2.1,7.5.2,12.9.2s9.9-.2,13.5-.7l.2.4c-.7,3-1.1,6.3-1.4,9.9l-2.9.2c0-1.2.1-2,.1-2.6,0-2-.5-3.2-1.4-3.6-1-.4-3-.7-6.1-.7s-4.9.1-5.3.3c-.4.2-.6.9-.6,2l-.5,11.6Z"/>
    <path class="cls-1" d="M96.8,190.5c-4.9,0-8.9-1.7-12-5.2-3.1-3.4-4.6-8-4.6-13.7s1.9-10.6,5.7-14.7c3.8-4.1,8.4-6.1,13.6-6.1s9.5,1.7,12.7,5.1c3.2,3.4,4.8,8,4.8,13.7s-1.9,10.6-5.8,14.7c-3.9,4.1-8.6,6.1-14.3,6.1M85.3,170.4c0,4.9,1.2,8.9,3.7,12.2,2.5,3.2,5.7,4.9,9.5,4.9s7-1.5,9.4-4.3c2.4-2.9,3.6-6.8,3.6-11.6s-1.3-8.9-3.8-12.1c-2.5-3.2-5.8-4.9-9.6-4.9s-7,1.4-9.3,4.3c-2.3,2.9-3.5,6.7-3.5,11.6"/>
    <path class="cls-1" d="M147.8,154.1c2.2,1.8,3.3,4.5,3.3,7.9s-1.4,6.5-4.2,9.1c-2.8,2.7-6,4-9.6,4h-5.1v5.9c-.1,2.7,0,4.4.3,5.1.3.7,1,1,2.2,1l3.2-.2v.2c.1,0-.4,2.8-.4,2.8,0-.1-1.3-.2-4-.2s-5,0-7.2.2c-2.2.1-3.3.2-3.3.3l.4-2.8c1.8-.3,2.9-.8,3.5-1.4.6-.6.8-1.8.8-3.5v-25.2c0-1.3,0-2.1-.4-2.6-.3-.4-.9-.7-1.8-.7h-2c0,.1-.1-.1-.1-.1l.4-2.6c2.9.1,5.1.2,6.7.2l7.6-.2c4.2,0,7.4.9,9.6,2.8M146.1,163.2c0-3.1-.9-5.3-2.7-6.7-1.8-1.4-4.7-2.1-8.6-2.1s-1.2,0-1.3.1c-.2,0-.3.3-.3.7-.4,5.1-.6,10.6-.7,16.5l6.4.9c4.8-.8,7.3-3.9,7.3-9.4"/>
    <path class="cls-1" d="M180.8,190.3c-7-.4-11.7-.5-14.3-.5-3.9,0-7.2.2-9.9.6l.4-2.8c1.6-.2,2.6-.7,3.2-1.4.6-.7.9-1.9.9-3.6v-25.2c0-1.3,0-2.1-.4-2.6-.3-.4-.9-.7-1.8-.7h-2c0,.1-.1-.1-.1-.1l.4-2.6c3,.1,5,.2,6.2.2s3.9-.2,7-.5l-.2,2.7c-.4,0-.8.2-1.2.2-.3,0-.6.2-.9.3-.3.1-.5.2-.7.3-.2,0-.3.2-.5.5-.1.3-.3.4-.3.5,0,.1-.1.3-.2.7,0,.4-.1.7-.1.8,0,.8-.1,1.6-.1,2.3-.5,6.7-.7,14.4-.7,23.1s.3,3.3.9,3.8c.6.5,2.3.8,5.2.8s4.9-.5,6-1.5c1.1-1,2-3.3,2.7-7l2.6-.3.2.3c-.7,3.6-1.3,7.4-1.7,11.4l-.3.4Z"/>
    <path class="cls-1" d="M196.1,168.6h6.2c0,0,7.3-.6,7.3-.6l.2.3-.8,3.5c-3.4-.1-6.1-.2-7.9-.2s-3.5.1-5.1.4c-.2,5.7-.2,9.5-.2,11.3s.2,2.8.7,3.2c.5.4,2.1.6,4.9.6s4.9-.2,6.3-.5c1.4-.3,2.4-1,3-1.9.6-.9,1.1-2.6,1.4-4.9l2.7-.3.2.3c-.7,3.3-1.3,6.7-1.6,10.1l-.3.3c-8.3-.3-13.8-.4-16.3-.4-3.9,0-7.3.2-10.2.6l.4-2.8c1.8-.2,3-.7,3.7-1.4.7-.7,1-1.9,1-3.6v-25.2c0-1.3,0-2.1-.4-2.6-.3-.4-.9-.7-1.8-.7h-2c0,.1-.1-.1-.1-.1l.4-2.6c3.2.1,7.5.2,12.9.2s9.9-.2,13.5-.7l.2.4c-.7,3-1.1,6.3-1.4,9.9l-2.9.2c0-1.2.1-2,.1-2.6,0-2-.5-3.2-1.4-3.6-.9-.4-3-.7-6.1-.7s-4.9.1-5.3.3c-.4.2-.6.9-.7,2l-.5,11.6Z"/>
    <path class="cls-1" d="M248.6,166.8c0,.8-.2,1.5-.5,2.2h.2c7.3-5.3,11.1-10.8,11.2-16.6l.3-.3h1.1c1.3,2.6,2,4.3,2,5.1s-.8,2.2-2.3,4.2c-1.8,2.6-4.4,5.2-7.7,7.7-3.3,2.5-8.6,5.9-15.9,10.3.9,2.4,2.4,4.3,4.4,5.6,2,1.3,4.5,2,7.6,2s5.6-1,7.6-3c2-2,3.2-4.8,3.5-8.3l-3.4-.5c-.3,0-.8.3-1.5.9-.6.6-1.4,1.4-2.4,2.6h-.4l-1.6-1.2v-.3l4.5-5.5.9-.3c.8,0,2.7.3,5.8.7,3.1.5,5.1.7,5.9.7s1.8-1.2,3.7-3.5h.4l1.4,1.2v.3c0,0-4.3,5.5-4.3,5.5l-.9.4-4.9-.7c-.7,4.2-2.6,7.6-5.6,10.3-3.1,2.7-6.7,4.1-10.9,4.1s-7.6-1.4-10.2-4.3c-2.6-2.8-4-6.6-4-11.3s1-6.5,3.1-9.1c2.1-2.6,4.5-3.9,7.3-3.9s3,.4,4,1.3c1,.9,1.4,2,1.4,3.6M236.1,173.6c0,1.1,0,2.2.3,3.4,3.1-2,5.2-3.6,6.3-4.8,1.1-1.2,1.7-2.4,1.7-3.5s-.2-1.9-.7-2.4c-.5-.5-1.2-.7-2-.7-1.6,0-2.9.8-4,2.3-1.1,1.5-1.6,3.4-1.6,5.7"/>
    <path class="cls-1" d="M308.7,154.1c2.2,1.8,3.3,4.5,3.3,7.9s-1.4,6.5-4.2,9.1c-2.8,2.7-6,4-9.6,4h-5.1v5.9c-.1,2.7,0,4.4.3,5.1.3.7,1,1,2.2,1l3.3-.2v.2c.1,0-.4,2.8-.4,2.8,0-.1-1.3-.2-4-.2s-5,0-7.2.2c-2.1.1-3.3.2-3.3.3l.4-2.8c1.8-.3,2.9-.8,3.5-1.4.6-.6.8-1.8.8-3.5v-25.2c0-1.3,0-2.1-.4-2.6-.3-.4-.9-.7-1.8-.7h-2.1c0,.1-.1-.1-.1-.1l.4-2.6c2.9.1,5.1.2,6.7.2l7.6-.2c4.2,0,7.3.9,9.6,2.8M306.9,163.2c0-3.1-.9-5.3-2.7-6.7-1.8-1.4-4.7-2.1-8.6-2.1s-1.2,0-1.3.1c-.2,0-.3.3-.3.7-.4,5.1-.6,10.6-.7,16.5l6.4.9c4.8-.8,7.3-3.9,7.3-9.4"/>
    <path class="cls-1" d="M333.2,190.4l-.2-.4.2-2.3c2-.2,3.4-.4,4.2-.7.8-.3,1.1-.9,1.1-1.6s-.2-1.7-.5-2.8l-2-6.5c-1,0-2.7,0-5.3,0s-5.1.2-7.5.5l-2.2,6.2c-.4,1.1-.5,1.9-.5,2.3,0,1.6,1.2,2.5,3.6,2.5h3.4v.2c.1,0-.2,2.6-.2,2.6-2.9-.3-5.7-.4-8.4-.4l-6.6.2.5-2.8c1.1-.1,2-.5,2.7-1.2.7-.7,1.3-1.8,2-3.4l11.7-30.6,3.8-1h.5c3.4,12.4,6.6,23.1,9.6,32.1.5,1.5,1.1,2.5,1.9,3.1.8.6,2.1,1,3.8,1.1v.2c.1,0-.3,2.4-.3,2.4-2.9-.1-5.4-.2-7.4-.2s-4.7.2-7.9.6M329.6,173.4c1.4,0,3.3,0,5.6-.3l-4.7-15.7h-.4l-5.7,16h5.3Z"/>
    <path class="cls-1" d="M375.7,153.9c2.2,1.7,3.3,3.9,3.3,6.5,0,5.2-2.9,9.2-8.8,11.9l6.6,10.4c1.2,1.9,2.3,3.2,3.4,4,1.1.7,2.4,1.1,4,1.1l.2.2-.4,2-5.1.7c-1,0-2.1-.5-3.2-1.5-1.1-1-2.2-2.4-3.1-4.2l-6.5-11.6h-5l-.2,8.9c0,2.2.2,3.5.7,4.1.5.6,1.7.8,3.6.8v.2c.1,0-.4,2.5-.4,2.5,0,0-2.1,0-6.4-.2l-6.9.2.5-2.7c1.9-.2,3.1-.6,3.7-1.2.6-.6.9-1.8.9-3.5v-25.2c0-1.3,0-2.1-.4-2.6-.3-.4-.9-.7-1.8-.7h-2c0,.1-.1-.1-.1-.1l.4-2.6c2.9.1,5.1.2,6.7.2l7.4-.2c3.7,0,6.7.8,8.8,2.5M373.9,161.9c0-5.3-3.7-7.9-11-7.9s-.7,0-.8.3c-.1.2-.2.6-.3,1.1-.4,6.1-.5,11-.6,14.7l6.2.6c1.5-.4,2.9-1.2,4.3-2.6.6-.6,1.1-1.4,1.5-2.5.5-1.1.7-2.3.7-3.6"/>
    <path class="cls-1" d="M398.9,180.1v-26.1c-1.9,0-3.2.1-4.1.2-.8,0-1.7.2-2.7.4-.9.2-1.5.5-1.8.7-.2.2-.6.6-1,1.3-.4.7-.6,1.3-.7,1.9,0,.6-.2,1.6-.5,3l-2.8.2c.5-3.5.8-7,.9-10.4l.6-.5,5,.7h18.6l5.1-.7.5.5c0,2.6.4,6,.9,10.1l-2.8.2c-.2-1.4-.4-2.4-.5-3-.1-.6-.4-1.3-.7-2.1-.4-.7-.7-1.2-1-1.4-.3-.2-.9-.4-1.7-.7-.9-.3-1.7-.4-2.5-.4-.8,0-2,0-3.7-.2-.7,6.4-1,16.1-1,29.1s.3,2.5.8,3.1c.5.6,1.4.9,2.7.9l3.3-.2.2.2-.5,2.8c-4-.1-7-.2-8.8-.2l-8.2.2.5-2.6c2.8-.2,4.5-.7,5.1-1.5.6-.7.9-2.7.9-5.9"/>
    <path class="cls-1" d="M451.1,181.1v-24.3c0-1.7-.7-2.6-2-2.6h-2.3c0,0-.1-.2-.1-.2l.5-2.7c2.5.2,4.2.2,5.3.2,1.8,0,3.9-.2,6.4-.5l-.3,2.8c-1.4.2-2.4.6-3.1,1.2-.6.6-1,1.4-1,2.6l-.8,33.7-1.7.8c-7.3-11.2-14.7-22.2-22.4-33h-.3l-.3,25.6c0,.9.1,1.5.4,1.9.3.4.8.5,1.4.5h3.1c0,0,.1.2.1.2l-.5,2.7c-2.5-.2-4.4-.2-5.6-.2-1.9,0-4,.2-6.4.5l.3-2.8c2.4-.3,3.7-1.5,3.7-3.8l.8-26.2c0-1.2-.4-2.1-1.1-2.6-.7-.5-2.1-.9-4.1-1.1l-.2-.3.5-2.2c2.3.2,4,.3,5.2.3l4-.2c5.9,9.2,12.7,19.1,20.2,29.7h.3Z"/>
    <path class="cls-1" d="M474.1,168.6h6.2c0,0,7.3-.6,7.3-.6l.2.3-.8,3.5c-3.5-.1-6.1-.2-7.9-.2s-3.5.1-5.2.4c-.1,5.7-.2,9.5-.2,11.3s.3,2.8.8,3.2c.5.4,2.1.6,4.9.6s4.8-.2,6.2-.5c1.4-.3,2.4-1,3-1.9.6-.9,1.1-2.6,1.4-4.9l2.6-.3.2.3c-.7,3.3-1.3,6.7-1.6,10.1l-.3.3c-8.3-.3-13.8-.4-16.3-.4-3.9,0-7.3.2-10.2.6l.4-2.8c1.8-.2,3-.7,3.7-1.4.7-.7,1-1.9,1-3.6v-25.2c0-1.3,0-2.1-.4-2.6-.3-.4-.9-.7-1.8-.7h-2.1c0,.1-.1-.1-.1-.1l.4-2.6c3.2.1,7.5.2,12.9.2s9.9-.2,13.4-.7l.2.4c-.7,3-1.1,6.3-1.4,9.9l-2.9.2c0-1.2.1-2,.1-2.6,0-2-.5-3.2-1.4-3.6-.9-.4-3-.7-6.1-.7s-4.9.1-5.3.3c-.4.2-.6.9-.7,2l-.5,11.6Z"/>
    <path class="cls-1" d="M524,153.9c2.2,1.7,3.3,3.9,3.3,6.5,0,5.2-2.9,9.2-8.8,11.9l6.6,10.4c1.2,1.9,2.3,3.2,3.4,4,1.1.7,2.5,1.1,4.1,1.1l.2.2-.3,2-5.1.7c-1,0-2.1-.5-3.2-1.5-1.1-1-2.2-2.4-3.2-4.2l-6.4-11.6h-5l-.2,8.9c0,2.2.2,3.5.7,4.1.5.6,1.7.8,3.6.8v.2c.1,0-.4,2.5-.4,2.5,0,0-2.1,0-6.4-.2l-6.9.2.5-2.7c1.9-.2,3.1-.6,3.7-1.2.6-.6.9-1.8.9-3.5v-25.2c0-1.3,0-2.1-.4-2.6-.3-.4-.9-.7-1.8-.7h-2c0,.1-.1-.1-.1-.1l.4-2.6c2.9.1,5.1.2,6.7.2l7.4-.2c3.7,0,6.7.8,8.8,2.5M522.3,161.9c0-5.3-3.7-7.9-11-7.9s-.7,0-.8.3c-.1.2-.2.6-.3,1.1-.4,6.1-.6,11-.6,14.7l6.2.6c1.5-.4,2.9-1.2,4.3-2.6.6-.6,1.1-1.4,1.5-2.5.5-1.1.7-2.3.7-3.6"/>
    <path class="cls-1" d="M546.4,190.5c-1.7,0-3.3-.2-4.9-.5-1.6-.3-3.1-.9-4.6-1.5l-.3-.6c.5-3.1.7-6.6.7-10.4l2.7-.3c0,4.3.5,7.1,1.5,8.5,1,1.3,2.9,2,5.8,2s5.1-.6,6.6-1.8c1.5-1.2,2.3-2.8,2.3-4.8s-.9-3.3-2.7-4.7c-1.3-1-2.6-1.8-4-2.5-1.3-.7-2-1-2.1-1.1,0,0-.1,0-.2,0,0,0-.5-.3-1.3-.7-.8-.4-1.7-.9-2.6-1.4-.9-.5-1.9-1.3-3-2.2-2.1-1.8-3.2-3.8-3.2-6.3s1.3-5.8,4-7.9c2.7-2.1,5.9-3.2,9.8-3.2s6.1.5,9.2,1.5l.2.4c-.6,3.1-1.1,6.5-1.3,10.1l-2.3.2-.3-.3c.1-.8.2-1.9.2-3.1,0-2.1-.5-3.6-1.6-4.4-1-.8-2.8-1.2-5.2-1.2s-4.4.6-5.8,1.7c-1.4,1.1-2.1,2.5-2.1,4.1s.7,3,2.1,4.2c1.4,1.2,3.7,2.6,7.1,4.3,3.3,1.7,5.6,3.1,6.9,4.2,2.2,1.8,3.3,3.9,3.3,6.2,0,3.4-1.4,6.2-4.1,8.4-2.8,2.2-6.3,3.3-10.7,3.3"/>
    <path class="cls-1" d="M559.2,231.5h-165.9c-.6,0-1-.4-1-.8s.5-.8,1-.8h165.9c.6,0,1,.4,1,.8s-.5.8-1,.8"/>
    <path class="cls-1" d="M180.8,231.5H14.9c-.6,0-1-.4-1-.8s.5-.8,1-.8h165.9c.6,0,1,.4,1,.8s-.5.8-1,.8"/>
    <path class="cls-1" d="M236.3,110.3H14.7c-.4,0-.8-.4-.8-.8s.4-.8.8-.8h221.6c.4,0,.8.4.8.8s-.4.8-.8.8"/>
    <path class="cls-1" d="M559.5,110.3h-209.9c-.4,0-.8-.4-.8-.8s.4-.8.8-.8h209.9c.4,0,.8.4.8.8s-.4.8-.8.8"/>
    <path class="cls-1" d="M313.5,113.7s0,.1,0,0c1-.6,2.1-1.1,3-1.8,1-.7,1.4-1.4,2-2.3,0,0,0-.2,0-.2.6-.9.9-1.8.6-2.8,0,0,0,0-.1,0-.4,1.1-.8,2.1-1.5,3.1-.2.2,0,.5.3.5-.5,1.6-3.3,2.8-4.4,3.6M308.8,110.7c.9-1.1,2.1-1.9,3.3-2.7.6-.4,1-.9,1.5-1.4,1-1,2.1-1.8,3.2-2.6,0,0,0-.2,0-.1-1.8.7-3.7,1.7-4.8,3.4-.5.8-.8,1.5-1.8,1.8-.5.1-1,1.2-1.3,1.6,0,0,0,.1,0,0M336,74.7c-.2.2-1.1,1.5-1.2,1.5-.5,0-2.2,1.3-2.1,1.6h0c0,.2.1.3.3.2.5-.2.9-.6,1.3-.9.5-.4.9-.3,1.4-.6.2-.1.3-.3.4-.4.2,0,.4-.2.6-.4,0,0,.1,0,.2,0,.2,0,.5.1.6.2.2.1.4.2.6.3,0,0,0,0,0,0,0-.2-.4-.4-.3-.6,0-.2,0-.3-.1-.4-.1-.1-.3-.2-.4-.3.2-.2.3-.4.5-.6.7-.7,1.4-1.8,1.9-2.7,0,0,0-.1,0,0-.9.6-1.4,1.6-2.1,2.4-.4.4-1,.6-1.5.9M328.7,76.1c.4-2.2,2.4-3.9,4.1-5.3,1.1-.9,2-2.4,3-3.4.9-.9,1.8-1.8,2.5-2.8,0,0,0-.1,0,0-2.5,1.7-4.7,3.8-6.5,6.2-1,1.3-3.7,3.5-3.1,5.4,0,0,.1,0,.1,0M316.6,107.9c0,0,0,0,0,0-.7,1.2-1.6,2.4-2.7,3.3-.6.5-1.4,1.2-2.2,1.2s-1.1.3-1.6.5c-.1,0-.1.2,0,.3,1.3.6,2.2-.4,3.2-1.2,1.4-1.1,2.6-2.6,3.4-4.2M263.1,98.3c-.2,0-.3-.1-.5,0,0,0,0,0,0,0-.1,0-.1.3,0,.4-.9,1.2-2.7,2.3-4.4,2.9-.2-.1-.5-.1-.8-.2-.4,0-.9,0-1.4-.2,0,0,0,0,0,0,.1.2.3.4.5.6-.6,0-1.2,0-1.8-.3-1-.4-1.5-1.5-1.7-2.7.5.8,1.5,1.4,2.2,1.8.1,0,.3-.1.2-.2-.8-.6-2-1.4-2.5-2.4,0-.5,0-.9.1-1.3.4-1.4,1.2-2.6,1.9-3.9.4-.2.6-.2,1,.3.6.7,1.2,1.3,1.9,1.9,1.4,1.2,3,2.5,4.8,3h0s0,0,0,0c-.8-1-2-1.6-2.9-2.4-.9-.8-2-1.6-2.7-2.5-.6-.7-1.2-1.2-1.8-.9,0,0-.1,0-.2,0-2,2.7-4.5,7.2-1.2,9.9,3.4,2.8,7-1.9,9.7-3.2.4-.2.2-.7-.1-.8M275.1,106.7c2.1.6,3.2-.6,4.9-1.5,0,0,0,0,0,0,0,0,0,0,0,0-1,.5-2.1.7-3.2,1,0,0-.1,0-.1,0-.1,0-.3,0-.5-.1-.2-.1-.4-.4-.5-.7-.2-.6-.2-1.2-.8-1.6,0,0,0,0,0,0,.2.3.3.7.3,1.1,0,.2,0,.4.1.6,0,.2,0,.4,0,.5,0,0,0,.1,0,.2-1.1-.3-1.8-1.5-2-2.6.8-.8,1.3-1.8,2.1-2.6.9-.9,1.8-1.7,2.6-2.6,0,0,0-.2-.1-.2-1,.7-1.9,1.7-2.8,2.5-.7.6-1.5,1-2,1.7,0-.2,0-.5,0-.7.5-.6.9-1.3,1.4-1.8.6-.6,1.2-1.2,1.8-1.8.1-.1,0-.4-.2-.2-.6.7-1.3,1.4-2.1,2-.1,0-.2.2-.4.3.8-1.6,2.2-3.1,3.3-4.3,0,0,0,0,0,0,0,0,0-.1-.1,0-2.5,2.2-5.6,5.2-4.5,8.8.3,1.2,1.6,1.9,2.8,2.2M333.6,95.3c-.1,0-.3,0-.4.2,0,0,0,.2-.1.3,0,0,0,.1,0,.2-.7,1.6-2.7,3.2-3.8,4.4,0,0,0,0,0,0,.7-.6,1.4-1.2,2-1.8.7-.6,1.3-1.5,2-2.1.1,0,.3.1.5,0,1.4-.8,2.2-2.3,1.9-3.9,0,0-.1,0-.2,0-.4,1.2-.9,2-1.8,2.8M281,99.4c.4.3,1.1.8,1.7,1.3,0,0,0,0,0,0-1.5,1.8-3.3,2.8-5.3,3.9-.2.1,0,.4.1.3,1-.5,1.8-1.1,2.7-1.7.9-.6,1.7-1.5,2.8-1.9,0,0,.1,0,.2-.1.2.3.4.6.4,1,0,1-1,1.4-1.8,2,0,0,0,0,0,0,0,0,0,0,0,0,1-.3,1.7-.8,2.6-1.3.4-.3.3-.9-.1-1-.9-.3-.7-1-1-1.6-.4-.7-.8-1.2-1.4-1.8-1.2-1.1-3-1.6-4-2.9,0,0-.2,0-.2,0h0c0,1.6,2.2,2.8,3.3,3.7M280.5,104.8s0,0,0,0h0c0,.1,0,.2,0,.2,0,0,0,0,0,0,0,0,.1,0,.1-.2,0,0,0,0,0,0M407.2,70.6c-1.5-5.1-3.2-10.2-5.2-15.1-2.5-6.3-5.4-12.5-8.8-18.3-2.1-3.5-6.2-11.6-11.3-11.9-.3,0-.7,0-1,0-2.4.6-4.8,1.3-7.3,1.8-4.3.8-9.1.8-13.5.9-2,0-10.9-.4-10.6,3.3-3.8.2-7.4.5-11.3-.8-5-1.6-9.5-4.7-14-7.4-4.8-2.9-9.9-5.4-14.9-7.8-1.5-.7-3.9-2.2-6.1-2.7-3-1.4-6.7-1.1-10-1.6-2.6-.4-5.2-.8-7.8-1.5-.5-.1-1-.3-1.5-.5-2.1-.7-4.1-1.7-6.3-2.3-1.8-.5-3.6.5-5.3.9-1.6.5-2.9,1.4-4.2,2.5-.7.6-1.9,1.7-2.6,2.8-.5.4-1.1.8-1.6,1.2-.2.2-.4.3-.7.5-2.1,1.2-4.9,1.6-7.1,2.4-3.9,1.4-7.6,3.4-11.5,4.8-4,1.5-7.8,2.1-12,2-2.7-.4-5.5-.8-8.1-.6-1.2-2.7-8.9-2.3-10.6-2.3s-4.3,0-6.4-.2c-1.9,0-3.7-.3-5.6-.4-2.9-.2-5.7-1-8.4-1.8-.5-.2-1-.2-1.4-.2,0,0,0,0,0,0-5.7-.8-10.3,8.7-12.4,12.6-3.4,6.1-6,12.6-8.2,19.2-1.8,5.2-3.3,10.5-4.7,15.8-1.6,6.3-3.8,12.7-3.9,19.4,0,.4.3.6.6.6s.3,0,.4-.2c10.4-.5,20.6,2,30.9,2.4,1.4,0,2.8.2,4.1.4,1.3.2,2.7.5,4.1.8,1.8.4,3.8,1,5.7.7,4.7-.7,5.7-4.7,7.5-8.4,1.2,0,2.4.2,3.6.4.7.2,1.4.5,2.1.7.2.9-.2,3.7-.2,4.1,0,.8,0,1.6.2,2.3,0,.6.2,1.1.4,1.6.6,2.2,2.3,4,4.3,5.2,4.1,2.4,9.1.9,13-1.3-.1.8-.3,1.6-.4,2.4,0,.4-.2.9-.3,1.4-.1.6-.3,1.2-.3,1.8-.2,2.4,1.7,4.8,3.3,6.3,3.5,3.5,8.7,5.2,13.3,3.5,0,1.2.6,2.8,1.1,3.7,1.1,2.3,2.5,4.1,4.8,5.4,1.9,1.1,3.7.8,5.7.7.4,0,.9,0,1.4,0,1.7.1,4-.5,5.5-1.7,0,0,0,0,0,0,.5,1.4.9,2.9,1.9,4.1,1.4,1.6,3.1,2.5,5.1,3.2,2.1.8,4.5,1.3,6.7.7.9-.2,1.7-1,2.3-1.6,1.4-1.3,2.5-2.2,4.4-2.7,0,0,.1,0,.2,0,.8.8,2.2,1.2,3,1.9,2.2,1.7,4,2.7,6.8,2.5,4.4-.3,9.5-3.5,10.3-8,2.2,1.2,5.2.9,7.5.2,3.6-1,6-3.4,6.5-7,.5.1,1,.2,1.5.2,1.2.3,2.5.3,3.4.3,2,0,3.7-1.1,5.2-2.3,2.6-2.1,5.5-6.5,4.5-9.9,0-.3,0-.5-.1-.7,0,0,0-.1,0-.2,2.5.6,5.9.6,7.9-.6,3.2-1.9,3.5-5.2,4-8.6.2-1.4.3-2.9.2-4.3.6,0,1.2,0,1.8,0,1.7,3.5,2.5,7.1,6.7,8.2,1.8.5,3.9,0,5.7-.4,3-.7,5.9-1.2,9-1.4,10.3-.5,20.6-2.9,30.9-2.4.1.1.3.2.4.2.3,0,.6-.2.6-.6,0-6.3-2-12.5-3.7-18.5M260.7,25h0s0,0,0,0h0ZM205.2,89c-2-.4-3.9-.7-5.8-1-3-.4-5.9-.8-9-1-5.3-.5-10.6-1.5-15.9-2.1-1.8-.2-4-.7-6-.8-1,0-2.8-.3-4,0,.2-5.8,2-11.5,3.4-17.2,1.1-4.5,2.3-8.9,3.7-13.4,1.9-6.2,4.3-12.3,7.1-18.2,1.4-2.9,3.1-5.7,4.8-8.5,1-1.6,2.1-3.1,3.3-4.6.6-.8,1.4-1.4,2.2-2,.2-.1.9-.6,1.7-.9,1.5-.2,3,.4,4.5.8,1.6.4,3.4.5,5,.6,2.5.1,5,.2,7.5.4,1.5,0,3,.2,4.5.4,3.3.3,8-.4,10.8,1.7-3-.4-6,6.4-6.8,8.4-2.9,8-3.8,16.9-4.7,25.2-.8,7.9-.7,15.8-.9,23.7,0,.5,0,6.2,1.3,6.9-1.8,1.7-4.2,2-6.9,1.4M212.5,87.1s0,0,0,0h0,0M233.6,94.1c-.6,1.4-2,1.5-3.3,1.7-.5,0-1.1-.2-1.6-.3-2.6-.7-4.6-3-5.5-5.5-.1-.3-.2-.5-.2-.8-.3-2.1.8-4.1.4-6.1t0,0c1.6,1.1,3.5,1.7,5.3,2.4,0,0,0,0,0,0,1.3.6,2.5,1.2,3.4,2.2.7.7,1.3,1.6,1.6,2.7.4,1.2.3,2.6-.2,3.8M255.8,108.6c-.4.1-.7.3-1.1.4,0,0-.2,0-.3,0-.9.1-1.8.2-2.7.3,0,0,0,0,0,0,.9-.1,1.8-.4,2.4-.5,2.7-.7,5.7-4.1,7.5-6.1,0,0,0,0,0,0-2.3,2.2-4.7,3.9-7.8,5-1.6.5-3,.8-4.7.5-.3,0-.5,0-.7-.1-2-1.3-4-3.5-5-5.4,0,0,0,0,0,0,.2,1.7,1.5,3.6,2.9,5.1-1-.7-1.9-1.4-2.7-2.1-2.2-1.9-3.5-4.1-2.9-7.1.2-1,.5-2,.6-2.9.2-.3.5-.6,1-.9.4-.2.8-.3,1.2-.4-1,1-1.6,2.8-1.7,4.1,0,0,.1.1.2,0,.7-1.3.8-2.7,2.1-3.7.5-.4,1-.9,1.6-1.2.4-.3.9-.5,1.4-.8,1.3-.6,2.5-1.3,3.8-2,1.9-1.1,3.7-2,5.7-2.6,1.6-.3,3.1-.3,4.8.1,1.3.4,2.2,1,3,1.8,1.8,2.6,2.6,5.6,1.7,8.5-.1.4-.3.7-.5,1.1.2-.7.2-1.4.1-2.1,0-.2-.3-.3-.4,0-1,3.7-3.2,6.8-6.2,9.2-1,.7-2.2,1.4-3.3,2M267.5,114.5s0,0,0,0c1.2,1.1,2.4,1.7,3.6,1.9.2.1.4.2.7.3,0,0,.1,0,.2.1,0,0,0,0,0,.2,0,0-.2.2-.3.3-.1.1-.3.3-.5.4-4.2.8-7-2.1-10-5.2,0,0,0,0,0,0,1.7,2.1,4.4,5.7,7.2,6.5-.3,0-.7.1-1,.1-1,0-2-.4-3-.7-3.1-.9-4.6-2.6-5.7-4.7,0-.2,0-.4,0-.6,0,0,0,0,0-.1,0-.3,0-.6,0-.8.3-4,3.9-6.4,6.5-9.6,3.1-3.1,5.6-6.8,9.4-9.2.5-.3,1-.6,1.6-.8.2,0,.3,0,.4-.2,2-.8,4.2-1,6.5-.6,3.9.7,3.9,3.7,4.6,6.7,0,.6,0,1.2-.2,1.8,0,0,0,0,0,0-.2.8-.5,1.6-.9,2.4,1.2-3.9.3-8.3-4.3-9.3,0,0,0,0,0,0,1,.5,3.2,1,2.8,2.6-.1.5.5,1.3.6,1.8.4,1.8.9,3.5,0,5.3-.1.3-.3.6-.5.9-2.1,2.2-3.8,4.7-6.7,6.1-2.3,1.1-4,3.2-6.2,4.3,0,0,0,.1,0,.1,1.2-.1,2.1-1.1,3.3-1.1s2.2-1.2,3-1.8c0,0,0,0,.1-.1-3,3.1-6.4,5.6-10.8,2.9M282.6,108.1s0,0-.1.1c0,0,0,0,0-.1t0,0M292.8,114.5c-.3.7-.6,1.3-.9,2,0,0,0,.1,0,.2-.3.6-.6,1.1-.9,1.7-1.6,2.7-4.2,4.3-6.6,6.2,0,0,0,.1,0,.1.8,0,1.6-.3,2.3-.7,0,0,0,0,0,0-.2.3-.3.7-.3,1-1.7.5-3.4.3-5.4-.6-2-.9-3.2-2.4-4.4-4.2-.6-.9-.8-1.8-1.4-2.6.7-.6,1.3-1.2,2-1.9,2.2-2.4,3.7-5.2,6.1-7.4.2-.1.3-.3.5-.4-.2.6-.4,1.3-.8,1.5-.5.2-.3.5,0,.6,0,0,0,0,0,0-.2,0-.3,0-.4.2,0,0,0,.2,0,.2-.8.9-1.4,1.9-.9,3.1.4,1,2.4,1.8,3.4,1.3,1.2-.6,7.3-3.9,4.3-5.6-.1,0-.2,0-.2,0,0,0,0,0,0,.1.9,1.9-1.8,3.7-3.3,4.3,0,0-.2,0-.3,0-.2-.2-.6-.1-.8-.1-.4,0-.8-.3-1.2-.3,0,0,0,0,0,0,.2.1.4.3.7.4-.3,0-.5,0-.8-.1-1.3-.3-1.5-1.1-1.3-2,0,0,0,.2.1.3,0,.2.3.6.6.5,0,0,0,0,0,0,0-.2-.2-.4-.3-.6,0-.1-.1-.2-.2-.3,0-.1,0-.3,0-.4,0-.3.2-.5.4-.8,0,0,.1,0,.2,0,0,0,0,0,0-.1,0,0,0-.2,0-.2,0,0,0,0,0,0h0s0,0,0,0c.3.1.6.1.5-.4,0-.4.6-1,.8-1.3.2-.2.8-1.7,1.2-1.5,0,0,0,0,0,0-1,1-1.5,2.6-2.3,3.8,0,0,0,0,0,0,.9-1.2,1.8-2.5,2.7-3.7h.2c.4,0,.7.5.9.8.3.4.7,1,1.2,1.1h0s0,0,0,0c-.3-.7-.9-1.5-1.4-2.1-.3-.3-.6-.8-1-.9.7-.9,1.4-1.9,1.9-2.9.2,0,.5-.1.7-.2,1-.1,2.2,0,3.2.4.9.4,1.5,1,2,1.8.1.3.3.5.4.8.5,3.2-.3,6-1.3,8.9M296.2,120.5s0,0,0-.1h.1c0,0,0,.1,0,.1M298.9,122.7s0,0,0,0c0,0,0,0,0,0,0,0,0,0-.1,0M299.3,123s0,0,0,0c0,0,0,0,0,0,0,0,0,0-.1,0M310.2,122.4c-1.4,1.3-3,2.3-4.9,2.8-2,.5-3.4-.3-4.8-1.2,0,0,0,0,0,0-.1-.2-.2-.6-.3-.9,0-.5.2-1.1.5-1.5.9-.6,1.7-1.3,2.1-2.1,0,0,0-.1-.1,0-1.3,1.1-2.5,2-4.2,2.4-.9.2-1.1,0-1.2-.8,0-.1,0-.2,0-.3,2-.2,4.6-2.3,5.9-3.5.1-.1,0-.3-.2-.2-1.5,1.1-2.9,2.4-4.9,2.6-.5,0-1,0-1.5.2,0,0,0,0,0,0,.3-1.3-1-2.9.7-4.1.7-.5,1.6-.7,2.3-1.2.4-.3.6-.4,1.2-.4.7,0,.5,0,1.3-.3,0,0,0,0,0,0-1-.1-2-.7-3-.4-1,.3-2,1.3-2.7,2-.5.4-.8.9-1.1,1.5,0-.3,0-.5.1-.8.7-3.3,3.6-5.2,6.9-4.3,1.9.5,4.3,2.2,5.8,3.8,0,0,.2.2.2.3.2.2.3.4.4.5.7,1,1.3,1.9,1.6,3.1.3,1,0,2.1-.1,3.1M314.1,118s0,0,0,0c0,0,0,0,0,0,0,0,0,0,0,0M360.6,61.2c-.1,2.7,0,5.7-1.4,8.1-2.8,5.2-12.7-3.8-14.9-5.8-4.2-3.8-8-8-12.8-11.1-3.6-2.4-7.6-4.1-11.4-6.2-2.7-1.5-5.2-3.2-7.6-5-2.9-2.6-5.7-5.3-9.1-7.1,0,0-.2,0-.2,0t0,0c.2-.3-.2-.7-.5-.4,0,0-.1.2-.1.2,0,.3.4.5.6.3,0,0,0,.2,0,.2,1.6,1.5,3.3,2.8,5,4.2.5.4.9.8,1.3,1.3-.6-.3-1.1-.6-1.6-.9-2.5-1.7-5.2-3.5-8.3-3.8,0,0,0,0,0,0,4.4,1.6,7.9,4.6,11.8,7.1.5.8,1.1,1.6,1.6,2.4-1.6-1.1-3.8-2.5-5.7-2.5,0,0,0,0,0,.1,1.8.4,3.5,1.6,5,2.8,1,.9,3.5,2.8,3.4,4.3,0,.2,0,.2.2.3,0,.2,0,.3,0,.5s0,0,.1,0c.1-.4.2-.7.3-1.1,0,0,0-.2,0-.2h0v-.3c0-.3,0-.5-.1-.8,1.4-.9,3.1.5,4.3,1.2,0,0,.2.1.3.2,1.4,1,2.7,1.9,4,3,3.6,2.9,7.5,5.3,11.1,8.1,1.7,1.3,3.2,2.7,4.6,4.3,1.1,1.2,1.8,2.5,3.1,3.4,1.3,2.3,3.1,4.6,4.8,6.5.9,1.1,1.8,2.2,2.5,3.4.3.7.7,1.8,1.1,2.8-1.9-3.1-4.8-5.9-6.9-7.8,0,0,0,0,0,0,3.5,4.6,7.2,8.8,7.8,14.5-.8,4.7-2.7,6.4-4.9,6.9-.9,0-1.9-.3-2.8-.8-1.4-.7-2.4-2.2-3.3-3.4-2.4-3-5-5.7-7.3-8.9,0,0-.1,0,0,0,2,3.9,4.7,7.4,7.4,10.8.2.3.5.6.7.8-3.2-2.6-6.3-7.5-9.1-9.1-1.2-1-2.4-2-3.6-2.9-2-1.5-5.1-2.3-7.2-3.7-1.1-.8-3.4-2.1-4.3-3-2.1-2.2-4.1-3.7-6-6.1-1.3-1.6-3-4.2-4.1-5.2,1.8-.4,3.3-1.1,4.9-2.1,0,0,0-.1,0,0-1.1.5-2.4.7-3.7.9.1,0,.3-.2.5-.3.2-.1,0-.4-.1-.4-1.8-.7-3.3.3-5.1,0-2-.3-4-1.8-5.6-3.1,0,0-.1,0,0,0,1.5,1.8,3.3,3,5.5,3.8,1.2.4,1.8.4,2.9.2-.3,0-.6,0-.9.1-.3,0-1.6,0-2.3.3-1.9,0-2.9-.1-2.2.2,1.8.8,3.7,1.7,4.5,3.5.7,1.5,1.1,3.2,2.2,4.6.4.6,1.4.9,2,1.2,1.2.8,2.5,1.6,3.7,2.4,1.7,1.1,3.4,2.2,5.2,3.3-.6-.2-1.2-.4-1.9-.6-2.3-.8-4.5-1.9-6.8-2.3,0,0,0,0,0,0,3.1,1.7,6.5,2.8,9.8,4.1,1.6.6,2.9,1.7,4.5,2.3.8.3,1.7.7,2.4,1,1.1.6,2.1,1.2,3.2,1.8,1.3.9,2.7,1.8,3.8,2.9h0c.6.7,1.2,1.4,1.8,2.1.5.8,1,1.6,1.4,2.5.3,3.5,1.6,6.8,0,10.2-.2.4.5.7.6.2.5-2.2.8-4.2.7-6.3.6,2.5.7,5.1.3,7.6-.6,3.3-2.5,5.2-5.6,5.9-2.5-.1-3.2-1.5-4.5-2.9,2.9,1.2,6,1.5,7.4-1.2,0,0,0-.1,0,0-2.5,3-6.5.8-9.8-1-.3-.2-.7-.5-1-.7-.5-.6-1-1.2-1.2-2,0,0,0-.2,0-.2,0-.4.2-.9.4-1.3.2-.2.4-.5.5-.8.6-.9,1.3-1.3,2.1-2,1-.9,1.7-2.1,2.6-3.1,1.1-1.3,2.5-2.1,4-2.8,0,0,0-.2,0-.1-2.6,1.2-4.5,2.3-6.3,4.6-.5.7-1.3,1.2-1.8,1.9-.4.4-.9.7-1.3,1-.7.4-1.3.4-2,.5-.3,0-.6,0-.9,0-.4-.4-1-.7-1.5-1-1.1-1.3-2.5-2.4-3.5-3.4-1.8-1.7-3.2-4.8-5.6-5.8,0,0,0,0,0,0,2,1.5,3.3,4.1,4.7,6.2-2.9-2-5.7-4.3-8.4-6.5,0,0,0,0,0,0,2.4,2.5,4.6,5.2,7.5,7.2,0,0,.1.1.2.2-.6-.3-1.3-.6-1.9-.9-1.8-.9-3.8-1.6-5.3-3-1.5-1.4-2.1-3.7-3.3-5.4,0,0,0,0,0,0h0s0,0,0,0c0,0,0,0,0,0,0,0-.1.1,0,.2,0,0,0,0,0,.1.1,2.2,1.2,4.2,2.7,5.9-.2-.1-.4-.2-.5-.3-1.2-.8-1.7-2.1-2.8-2.9-.2-.2-.5,0-.6.2-.1.2-.2.5-.2.7h0c0,.2.2.4.4.2,0,0,.1-.1.2-.2.3.4.7.7,1.3,1,1.3.8,2.6,1.7,3.7,2.8.7.6,1.3,1.1,2,1.5,1.7,1.4,3.5,2.6,5,3.7,2.4,1.8,4.8,3.4,7,5.3h0c1,1,1.5,1.8,1.8,3.1.3.9.3,2.2.9,3,.1.2.4.1.4,0,0-1.2-.5-2.6-.8-3.7,0-.1,0-.2-.1-.3.1.1.3.3.4.4.7.8,1.3,1.7,1.9,2.6,0,.4.1.9,0,1.4-.1,1.3-.6,2.6-1.3,3.7-.9.9-2,1.7-3.5,2.2-1.2.4-2.5.6-3.8.6-1-.3-2-.5-2.9-.8.2,0,.3,0,.5,0,1.4.2,2.8.4,4.2.1,1.4-.3,2.6-1.5,3.8-2.3.1,0,0-.3-.1-.2-.9.5-1.7,1-2.5,1.5-2,1.1-3.9.2-5.8-.3-2.3-.7-4.2-1.2-6.1-2.4-.7-1-1.5-1.9-2.3-2.7-1.8-1.9-3.1-4-5.1-5.7-1.5-1.4-2.4-3-3.6-4.7-.5-.8-1.3-1.7-2.3-1.7,0,0,0,0,0,0,1.6.7,2.3,2.6,3.1,4.1.8,1.6,1.3,2.5,2.6,3.8,1.6,1.5,3.2,2.9,4.6,4.6-1.8-1.4-3.5-2.9-5.3-4.2-.5-.4-1-.8-1.4-1.2-.3-.4-.6-.9-.9-1.2-1.2-1.5-2.7-2.4-3.5-4.1,0-.1,0-.2-.2-.4-.4-1.1-.9-2.5-1.8-3.3,1.3,0,2.7-.3,3.6-.5,2-.5,3.5-1.7,4-3.7,0,0,0,0,0,0-.9,2.7-3.3,3.1-5.9,3.1-.8,0-2-.2-3,0-1.6-.2-3.1-.6-4.6-1-.1-.3-.2-.5-.4-.8.3,0,.5,0,.7-.2,0,0,0,0,0-.1-.3-.4-.9-.6-1.4-.7-.2-.2-.3-.4-.5-.6-1.1-1.1-2.5-1.6-3.9-1.6-.3-.2-.6-.3-1-.4-.6-.1-1.2-.2-1.8,0-.3.1-.4.5-.1.7-.3,0-.7.1-1,.2-.7.2-1.4.4-2.1.7-2.9-1.2-6.4,0-8.6,2,0,0-.2-.4-.3-.9.3,0,.5-.1.8-.2,2-.9,3.3-2.2,5.6-2.4,0,0,0,0,0,0-1.5-.2-3,0-4.3.6-.5.2-1,.5-1.5.7-.4.2-.7.3-.9.2,0-.3-.2-.5-.2-.5-.3-.7-.5-1.4-1.1-1.9-1.7-3-5.1-4-9-2.7-2.6.9-5.1,2.8-7.4,4.2-.9.6-1.8,1.1-2.7,1.5-1,.4-2,.6-3.3.4,0,0-.2,0-.3,0h0c-.5-.3-1-.3-1.4-.7-.2-.2-.5-.3-.8-.4,0-.2-.2-.3-.3-.4,0,0,0,0-.1-.1-.4-1-1.5-1.4-2.5-1.8-2.9-1.2-5.6-3.1-8.3-4.6-2.4-1.2-4.5-2.6-7.2-3.2-.1,0-.3,0-.4-.1-2.8-1.1-5.4-1.8-7.2-4.7-1.7-2.8-1.2-6.4-2.1-9.5,0-2.7.2-5.3.4-8,0-.6.1-1.2.2-1.8,1.7-7.1,3.4-14.2,4.9-21.3.4-1.7,1-3.2,1.8-4.5,3.6-.9,7-2.1,10.7-2.7,4.7-.9,9.5-.8,14.2-1.7,0,0,0-.1,0-.1-4.8.7-9.6.4-14.4,1-2.8.4-5.7.9-8.4,1.8,0,0,0,0,.1-.1,0,0,0-.1,0-.2,1.3-.5,2.6-.9,4-1.2,1.7-.4,3.5-.5,5.1-1.1.1,0,.1-.2,0-.2-2.2.1-4.7,0-6.9.7.6-.3,1.2-.6,1.9-.8,2.8-1,5.9-1,8.8-1.5,3,0,5.9-.6,8.7-1.4,3.9-.4,15-4.1,16.9-.2-1,.6-2.1,1.1-3.4,1.5-2.1.7-4.6.4-6.7.7,0,0,0,.1,0,.2,2.1.2,6,.5,9-.3,0,0,.1,0,.2,0-1.5.8-3,.9-4.7,1,0,0,0,.1,0,.1,1.2.1,2.6.6,3.9.6-.6.6-1.2,1.2-1.6,1.9-1,1.2-1.5,3-.9,4.4.6,1.6,3.4,3.1,5.2,3.2,3.4.6,7.5-.4,10.2-1.3,3-1.1,5.6-2.8,7.7-5,.1.2.1.2.7,0,1.2-.2,2.1-.1,3.3.1,1.7.4,3.2,1.3,4.9,1.5.1,0,.2-.1,0-.2-1.6-1-3.6-1.6-5.3-2.1-.7-.2-1.8-.5-2.8-.5.1-.1.2-.3.3-.4,5.2.2,10.5,2.6,15.2,4.7,0,0,.2,0,0-.1-2.7-1.4-5.5-2.7-8.3-3.9-1.8-.7-3.7-1.7-5.5-1.5,3.1-.7,6.7.8,9.6,1.7,1.8.6,3.5,1.4,5.2,2.1,1.1.4,2.2.5,3.2,1,.9.4,1.2.9,2.2,1.1,0,0,.2,0,.2,0,0,0,0-.1,0-.2-.4-.5-.5-.6-.8-.7-.8-.7-1.6-1.3-2.3-2.1-1.1-1.2-1.3-2.5-2-3.9-.8-1.5-1.9-1.9-3.5-2.3-2.8-.6-4.9-2.1-6.9-4.1-1.4-1.4-2.2-3.3-3.7-4.6,0-.4-.2-.7-.4-1.1-.2-.4-.8-.3-.9.1-.2.6-.2,1.4-.2,2.1,0,.4,0,.7,0,1.1,0,.2.2.2.2.4s0,0,0,0c0-.2.1-.1.2-.3.1-.2,0-.5.1-.8,0-.4,0-.8.2-1.2,0,0,0,0,0,0,0,0,0,.1.1.2.8,4.1,1.1,8.1-1.7,11.6-2,2.4-5.3,4.4-8.1,5.8-5,2.5-11.9,3.8-15.2-1.3-.1-3.1,2.9-4.1,5.8-4.2,2.4,0,3-1.5,4.4-3.2.7-.8,2.4-2.8,1.6-4-.8-1.1-1.6-1-2.8-.5,0,0,0,0,0,0s0,0,0,0c.5,0,1,.1,1.3.3-.2.8-.4,1.6-.8,2.3-.3.7-1,1.4-1.2,2.1,0,0,0,.1.1.1.7-.5,1.3-1.6,1.8-2.4.2-.3.5-.8.7-1.2,0,.4,0,1-.2,1.7-.4.6-.9,1.1-1.4,1.6-.9.9-1.8,1.7-3,2.2-1.6.5-3.3.4-4.8,1.1,0,0-.2,0-.2.1.4-.3.7-.7,1.1-1,.3-.3.6-.6.8-.8.9-.8,1.7-1.8,2.6-2.6.5-.5.9-1,1.2-1.5.5-.6.6-1.3,1.4-1.7,0,0,0,0,0,0h0c-.5,0-1,.3-1.5.6.5-1.3.9-2.6,1.3-3.9.4-1.2.8-2.4,1.5-3.6.4-.6.8-1.1,1.1-1.7,1-.6,2-1.2,3.1-1.6,1.6-.5,3.7.2,5.3.3,0,0,0-.1,0-.1-1.7-1-4.1-.8-6-.8,0,0,0,0-.1,0,1.5-1.2,3.3-2.5,5.2-2.1,2.1.5,4.2.4,6.3,1,.7.2,1.3.4,2,.7,3.3,1.1,6.6,2.3,10.1,2.8,3.3.5,6.6.6,9.9,1.2,3.4,1.1,6.7,3.1,9.7,4.6,4.7,2.4,9.3,5.2,13.8,7.9,3.9,2.4,7.8,4.5,12.3,5.6,4.3,1.1,9.8,1.5,14.1.2,2.2,2.1,4.1,7.6,4.4,8.8,1.3,5.1,1.8,10.5,2.5,15.6,0,.1,0,.2,0,.3-.2,1.4,0,2.9-.1,4.3M316.3,46h0s0,0,0,0M405.6,87.8c-1.8,0-3.7.5-5.2.7-5.5.7-11.1,1.6-16.6,2.1-4.8.4-9.4.7-14,1.8-3.4.8-6.4.7-8.6-2.4-.1-.2-.3-.4-.4-.6,0,0,0,0,.1,0,3.3,0,2.8-8.7,2.4-12.9,0-1.9,0-3.9,0-6-.2-6.8-1-13.5-2-20.2-.8-5.7-1.6-11.8-4.8-16.7-.5-.8-1.2-1.6-1.9-2.3,0,0-.1-.2-.2-.2-.8-.7-1.8-1.2-2.7-1,2.7-1.9,6.9-1.3,10.1-1.7,3.7-.4,7.3-.5,11.1-.7,1.7,0,3.3-.2,5-.4,1.6-.2,3.1-.9,4.7-1,1.4.8,3.4,2.3,3.5,2.4,1.3,1.2,2.2,2.7,3.2,4.1,1.9,2.7,3.6,5.4,5.1,8.2,3.1,5.5,5.6,11.3,7.7,17.2,1.5,4.1,2.9,8.3,4.1,12.5,1.6,5.5,3.3,11.2,3.5,17-1.2-.3-3.1,0-4.1,0M361.7,84.6c0,0,0-.2,0-.3,0,0,0,.2,0,.2h0ZM302.1,85.4c-.9,1.3-.7,2.8-.8,4.3,0,0,0,0,.1,0,.2-.7.3-1.3.5-1.9.3-.8.7-1.5.5-2.3,0-.2-.3-.2-.4,0M306.6,73.8c-.3,1.2-.4,2.2-1,3.2-.4.7-1,1.7-1.2,2.4-.2.8-.3,1.2-.8,1.9-.2.3-.5.5-.5.9,0,0,0,0,0,0,.9-1.2,2.2-1.8,2.9-3.2.7-1.5,1.4-3.7.7-5.3,0-.1-.2-.1-.2,0M324.8,113.5c0,0,.2,0,.2-.1.1-.3.3-.5.4-.8.1-.3,0-.6-.1-.8,0,0-.1,0-.1,0-.1.5-.3,1-.5,1.5,0,0,0,.2,0,.2,0,0,0,0,.2,0M337.7,103.3c.4,0,.4-.7,0-.7s-.4.7,0,.7M296.9,93.5c-.7-.2-1.4,0-2,0,0,0,0,0,0-.1,0-.1-.3-.2-.4-.1-.6.2-1.7.4-2.3.4-.8,0-1.7,0-2.5,0,0,0,0,0,0,0,.8.2,1.7.2,2.6.3.5,0,1,.2,1.5.2.2,0,.4,0,.7,0,0,0,0,0,0,0,0,.1.2.2.4.2.8,0,1.8,0,2.4-.5.2-.1,0-.3,0-.4M298.9,91.5c0,.1-.1.2-.2.4-.2.3.2.6.4.4.2-.1.4-.3.4-.5,0-.2,0-.4-.3-.4,0,0,0,0-.1,0-.1,0-.2,0-.3.2M301.2,84c0,.2.3.1.3,0,0-.4,0-.7.2-1,0-.1,0-.3.1-.4,0-.2.1-.4.2-.5,0-.2,0-.3-.2-.3-.4.2-.6.5-.7.9,0,.2,0,.4,0,.5,0,.3,0,.5.2.7M235.6,84.3c-3.4-2-6.9-3.6-10.5-5.1,0,0,0,0,0,.1,3.5,1.7,7,3.5,10.2,5.6,2.8,1.8,5.2,4.1,8.6,4.6.2,0,.4-.1.3-.3-1.5-2.5-6.1-3.5-8.5-4.9M253.7,86c-.9.6-1.7,1.4-2.6,1.9-.4.2-2.9,1.3-3.3.8-.1-.2-.4-.2-.6,0-.2,0-.9.4-1.2.5-.2,0,0,.3,0,.4.3,0,1,0,1,0,.1.1.3.3.5.3.5.2,1.3.1,1.8-.2,1.5-1.1,3.2-1.7,4.9-2.6.6-.4,0-1.3-.6-.9M260.4,91.1c1.2.5,2,1.1,2.7,2.2.5.7.9,2.3,1.9,2.5,0,0,.2,0,.3-.1.6-1.1-.8-2.5-1.4-3.3-.8-.9-2.2-2-3.4-1.6,0,0,0,.2,0,.2M263.1,101c-.1-.2-.4-.2-.5,0,0,0,0,0,0,0-.1.2,0,.5.3.5s.4-.3.3-.5c0,0,0,0,0,0M279.6,93.6c.1,0,.2,0,.4,0,.4,0,.4-.7,0-.6-.1,0-.3,0-.4,0-.3,0-.3.5,0,.6M278.3,93.5s0,0,.1,0c0-.1.1-.2,0-.3-.4-.3-.4.4-.1.3M291.4,104.3c-.1,0-1.3-.4-1.8-.4-.2,0-.3.4,0,.4.3.2.7.3,1.1.5,0,.2,0,.5.3.6,1,.4,1.3,3,1.3,3.8,0,1.4-.4,2.8-.7,4.2-.4,1.4-.9,3.5-2.3,4.3-.3.2-.4.9-.5,1.1,0,.3.3.5.5.3,1.7-1.8,2.6-4.9,3.3-7.2.7-2.3.6-5.1-.5-7.2-.1-.2-.5-.4-.7-.3M288.4,119.7c-.3.2-.7.4-.9.7-.3.3-.7.6-.9,1.1,0,0,0,.2.1.2.5.2.9-.3,1.2-.6.2-.2.3-.4.4-.6,0,0,0-.2,0-.3,0,0,.1-.2.1-.2,0,0,0-.2-.1-.1M285.4,122.1c-.4,0-.4.6,0,.6s.4-.6,0-.6M305.6,115.5c.3.4.6.8.9,1.2.2.3.2.6.3,1,.3.8,1.6,2.4,2.3,1.2.4-.6-.2-1.3-.7-1.7-.5-.4-1.1-.7-1.5-1.2-.9-1.1-2.2-2.4-3.8-2.1-.1,0-.1.2,0,.2,1,.2,1.7.6,2.4,1.3M308.5,119.5c-1.2,0-1.3,1.8-.3,2h0c-.2.6.7,1,1,.4.1-.3.2-.6.2-.9.3-.6,0-1.6-.9-1.6M307.2,122.8s0,0,0,0c0,.1-.2.3-.4.4-.3,0-.6.2-.9.4-.3.2-.7.3-.8.7,0,0,0,.1,0,.2.4.3,1.3,0,1.7-.1.5-.2.8-.7.9-1.3,0-.4-.4-.4-.6-.3M305.2,124.5h0s-.1,0-.1,0c-.2-.1-.5,0-.5.3s.3.4.5.3c0,0,.1,0,.2-.1,0,0,0-.2.1-.2,0-.1,0-.3-.1-.2M265.2,111.2c-.2-.5-.4-.8-.8-1-.1,0-.3,0-.3.2,0,.2,0,.5.2.7,0,.1.2.3.2.4,0,.1.2.1.3.2.3.2.5.6.7.9.3.3.5.5.8.7,0,0,0,0,0,0-.5-.5-.8-1.2-1.2-1.8,0,0,0-.2,0-.3M264.1,108.8c0-.1-.1-.3-.2-.4-.3-.3-.7.1-.4.4,0,0,.2.2.3.3,0,0,.2,0,.3,0,0,0,0,0,0,0,0,0,0-.2,0-.3M230.7,87.3c.9,1.4,1.3,2.6,1.4,4.2,0,.4.6.4.7,0,.2-1.7-1-3.1-2-4.3,0,0-.1,0,0,0M232.3,92.2c0,0,0,.1-.1.2,0,.1,0,.2-.1.3,0,.2-.2.4-.4.5-.3.2,0,.6.3.5.3-.1.4-.4.4-.6,0-.1,0-.3,0-.4,0-.2,0-.2,0-.4,0,0-.1,0-.2,0M230.9,94.1s0,0,0,0c-.1-.1-.4-.1-.5,0,0,.1,0,.2,0,.3.2.2.6.2.6-.1,0,0,0,0,0,0,0,0,0-.1,0,0M325.7,94.9c.6-.9,1.5-1.6,2.4-2.2.1,0,.1-.2,0-.3.4-.3.8-.6,1.1-1,0,0,0-.2-.1-.2-.7.2-1.5.5-1.9,1.1-.1.2,0,.4.1.5-.7.6-1.3,1.2-1.7,2.1,0,0,0,.1,0,0M356,67.6c-.1,0-.3.1-.4.1,0,0-.1,0-.2-.1-.3-.1-.5-.2-.8-.3-.3,0-.7,0-.9.1,0,0,0,0-.1-.1-2.1-1.3-3.1-3.5-5.3-4.6-1-.5-1.6-1.5-2.3-2.3-.7-.9-1.8-1.5-2.7-2.2-2.5-1.6-4.3-4-6.6-5.8-1.9-1.5-4.4-2-6.6-3.1,0,0,0,0,0,0,2.5,1.7,5.3,2.5,7.5,4.6,2,1.9,3.4,4,5.6,5.7,1.6,1.3,2.6,3.2,4.3,4.3,1,.7,2.1,1,3.1,1.8.9.7,1.6,1.4,2.7,2,.2.1.3,0,.4,0,.1,0,.2.1.3.3.2.2.4.4.7.6.6.4,1.5-.1,1.6-.8,0-.2,0-.3-.3-.3M358.9,65.4c-.1.2-.1.3-.2.5,0,.3-.2.4-.4.5-.3.2-.6.7-.7,1,0,0,0,.1,0,.2.4.3,1.3,0,1.5-.5.1-.3.2-.6.2-.9,0-.3,0-.6-.2-.8,0,0-.2,0-.2,0M359.4,56.9c0-1.5.2-2.9-.4-4.4-.1-.3-.4-.5-.7-.5-.1-1.1-.6-2.1-.7-3.2,0-.3-.4-.3-.4,0,0,.4.4,2.4.3,3.1-.8-.4-2-.3-2.7-.6-2.8-1-5.8-1.6-8.6-2.6,0,0-.2.1,0,.2,3.6,1.9,7.7,2.8,11.5,4.3.2.2.4.3.6.3.9,0,.5,2.4.5,3,0,1.1,0,2.3,0,3.4,0,1.3-.4,2.2,0,3.4,0,.2.3.3.5.2.3-.1.2-.3.3-.7,0,0,0,0,0,0,.5-.3.4-.7.3-1.3-.3-1.5-.4-3.1-.3-4.6M345.9,35c1.7,0,3.4.2,5.1.4,2.1.2,2.2,1.7,3.3,3.2,0,.1.3,0,.2,0-.2-1.2-1.1-2.4-.9-3.7,0-.3-.3-.6-.7-.6-4.6,0-9.5.9-14-.7,0,0,0,0,0,0,2,1.3,4.6,1.4,6.9,1.4M355.5,42.3c0,.4,0,1.6.4,1.8,0,0,.1,0,.2,0,.4-.4,0-1.6-.2-2.1-.1-.5-.4-1.5-1-1.6,0,0,0,0,0,0,0,.3.3.5.4.8.1.3.2.7.3,1.1M206.2,81.2c-.4,1.5.2,2.8.1,4.3-1.4-.3-2.8-.8-4.2-.9-1.9-.2-3.8-.3-5.7-.3-3.6-.1-6.9-1.4-10.5-1.5-3.7-.1-7.3-1.2-10.9-1.5-1.3-.1-6.1.5-6.5-1.1,0-.3-.4-.5-.8-.4-.4.1-.1-.5-.6-.5-.2,0-.2.3,0,.4,0,0,0,.6,0,.7,0,.2.2.4.3.4.4.1.5.8,1,1,1,.4,1.9.5,3,.5,1.2,0,2.3,0,3.5,0,2.5,0,5.1.8,7.6,1.2,1.8.3,3.6.3,5.4.4,2.3.1,4.5,1,6.7,1.5,2.2.5,4.5.4,6.6.9,2,.5,3.9.8,5.9.5.2,0,.4-.3.4-.5-.2-1.7-.9-3.1-1-4.9,0,0-.1-.1-.1,0M206.9,75.5c0,0-.2-.1-.3-.2,0,0-.2,0-.3,0,0,0-.1,0-.2.1-.3.2-.4.7-.1,1,.2.2.1.6.2.8,0,.4.1.8.3,1.2,0,.2.3,0,.2,0,0-.5-.2-1.6.2-1.9.2-.2.2-.7,0-.9M206.6,68.5c0,1.1.3,2.1,0,3.3-.1.8-.5,1.7-.2,2.4,0,0,0,0,.1,0,.7-.4.7-1.4.7-2.1,0-1.2,0-2.4,0-3.7,0-.5-.8-.5-.7,0M197.4,22.8c1.6.3,3.2.6,4.8.8,1.9.2,3.9.3,5.8.3,1.8,0,3.7.3,5.5.4,0,.2.3.3.6.3.8,0,1.5-.2,2.3-.3,0,.1.2.2.4.3-.6,1.1-1,2.4-1.3,3.6,0,.2.2.2.3.1,1-1.4,1.2-3.1,2.7-4.2.4-.3.3-.8,0-.9-.1-.3-.5-.6-.9-.5-.8.2-1.5.4-2.2.5-.1-.2-.4-.4-.6-.4-3.8,0-7.5.5-11.3.3-2.1-.1-4.3-.5-6.4-.8-1.4-.2-2.8,0-4.2-.1,0,0,0,0,0,0,1.6.4,3.3.2,5,.6M208,61.8c.4-.2.1-.8-.3-.7-.6.2.2.9-.2,1.1-.1,0-.2.2,0,.4.3.4-.2,1.2-.2,1.7,0,.1,0,.3.2.4,0,0,0,0,0,0,.2,0,.3,0,.5,0,0,0,0,0,0,0,0-.1.1-.3,0-.4,0-.4.1-.9,0-1.3,0-.2,0-.4-.2-.5,0,0-.2-.1-.2-.2,0-.3.1-.2.3-.3M214.3,30.5c-.7,0-.7,1.1,0,1.1s.7-1.1,0-1.1M275.4,29.2c-.6.2-1,.3-1.3.8-1,1.6-2.9,1.8-4.7,2-.7,0-2.2.3-2.8.7-1.6,1.2-4.3,1-6.2.9,0,0,0,0,0,0,2.5.8,5.4.8,7.9.2,1.2-.3,2.1-.8,3.2-1.4.6-.4,2.4-1.9,3.2-1.7.3,0,.7,0,.8-.5,0-.2.1-.4.2-.6,0-.2-.2-.5-.4-.4M278.2,27.9s0,0,0,0c1.5-.8,2.1-2.5,2.9-3.9.8-1.4,1.3-3.5.7-5,0-.1-.2-.2-.3,0-.6,1.2-.7,2.5-.9,3.8-.4,2-1,3.5-2.4,5M314.5,55.4c0-.4.3-.8.5-1.1.2-.2.2-.5.2-.8.1-.7.3-1.4.4-2.1,0,0-.1-.1-.2,0-.3.4-.5.9-.6,1.4-.2.6-.4,2-1,2.1-.4,0-.5.6-.2.9.4.3.9,0,.9-.4M398.6,85.2c-2,.3-3.9.4-5.8.8-1.7.3-3.4,1.3-5.1,1.8-3.7,1.1-7.8,1.3-11.6,1.6-3.3.2-7.2.6-10.2-1.2-.2-.1-.4,0-.6,0,0-.1,0-.3,0-.5.2-.6.3-1.2.3-1.8,0-.9.2-1.9,0-2.7,0-.1-.2-.1-.2,0-.3.8-.3,1.8-.5,2.6-.2.6-.3,1.2-.3,1.9-.2.3-.4.6-.6.9,0,0,0,.1-.1.2-.2.3.2.6.4.4,0,.4.4.7.7.5.8-.4,2.3.2,3.2.3,2,.2,4,0,6,0,4.5,0,9.4-.6,13.7-1.7,4.5-1.1,9.5-2.6,14.2-2.9,1.9-.1,4.4,1,5.2-1.5.2-.6-.8-1-1-.4-.8,1.8-6.1,1.4-7.7,1.7M365.4,82.8c0,0,.1,0,.1,0,.4-1.6.4-2.7.2-4.4-.2-1.7.2-3.4-.2-5,0-.2-.3-.2-.4,0-.3,1.4,0,2.9,0,4.3,0,1.9-.2,3.3.2,5.1M364,61.4c.2.1,0,2.2,0,2.5.1,1,.5,1.9.6,2.9,0,0,.1,0,.1,0,0-.5.2-.9.2-1.3,0-.3.3-.7.2-1-.1-.4-.9-2.8-.6-3,.3-.2.4-.6.1-.9,0,0-.1-.1-.2-.2,0-.1-.3-.1-.4,0,0,0-.1.1-.2.2-.3.3-.2.7.1.9M374.4,30.4c.9-.1,5.5-1.3,5.9-.5.2.3.5.5.9.5,2-.2,3,.4,4.5,1.7.2.2.4,0,.3-.3-1-1.7-2.7-2.9-4.5-3.5-.5-.1-.9.1-1.2.5-.4.6-3.5.5-4.4.6-2.1.3-4.1.5-6.2.6-4.1.2-8.2,0-12.2.7-.1,0-.2.1-.3.2-.1-.2-.3-.3-.4-.4-.2-.2-.5,0-.4.3.3.6.7,1.9,1.5,1.9.3,0,.5-.3.5-.6,0-.2,0-.3-.1-.5,3.8-.4,7.6-1,11.4-1,1.6,0,3.1,0,4.7-.2M359.6,36.7c-.1-.3-.2-.5-.3-.7h0c0,0,.2,0,.2,0,.4-.4.3-1.1,0-1.5,0-.1-.3-.1-.4,0,0,0,0,0-.1,0-.1,0-.2.1-.3.3,0,0,0,.2,0,.2,0,0,0,0,0,0,.3.6.6,1.3.9,1.9.2.6,0,1.2.4,1.6.1.1.3,0,.3-.1,0-.3,0-.3-.1-.6-.2-.4-.4-.8-.6-1.2M358.8,35s0,0,.1,0c0,0,0,.2,0,.3,0-.1-.1-.2-.2-.3M248,26.5s0,0,0,0c.2,0,.3,0,.5,0,0,0,0,0,0,0,.3-.3,0-.6-.3-.6-.2,0-.2.1-.3.3,0,.1,0,.3.2.4M297.7,34.1s0,0,0,0c-.1,0-.1.3,0,.3,0,0,0,0,0,0,.2.1.4,0,.4-.2s-.2-.3-.4-.2M217.1,76.5c-.4-.4-.8-.9-1.4-.9-.2,0-.2.2-.1.3.4.5,1,1,1.6,1.3.6.4,1.6,0,2.2-.1,0,0,0,0,0,0-.9,0-1.6,0-2.3-.6M215.7,74.8c0-.4.2-.9-.2-1.2-.3-.2-.7.2-.5.5.2.2.4.4.5.7,0,0,.2,0,.2,0M214.3,61.8c0-1.5-.2-4,1.5-4.6,1.1-.4,2.2-.2,3.3-.3,0,0,0,0,0,0-1.6,0-4.9-1.8-5.4.8-.7,3.9-.6,8.2.6,12,0,0,.1,0,0,0-.1-2.6-.3-5.2-.2-7.8M216.6,54.1c.4-.5,0-.7,0-1.6,0-1.9.5-3.8.6-5.7.2-2.2.5-4.5,1-6.7.2-1.1.9-5.4,2.4-5.5.3,0,.8-.3.7-.7-.1-.8,3.3-1.9,3.8-2.1,1-.3,2-.6,3-1,.1,0,0-.2,0-.2-2.2.3-4.4,1-6.5,1.6-.6.2-1.3.6-1.6,1.2-.4.7.1-.2-.3,0-.2.1-.5.4-.6.7-1.1,4-2.2,7.8-2.6,11.9-.2,2.2-.6,4.4-.6,6.5,0,.4.6,1.4.6,1.6,0,0,.1.1.1,0M230.1,30.3c.3,0,.7,0,1,0,.3,0,.6,0,.8-.3,0,0,0-.2,0-.2-.3-.1-.5,0-.8,0-.3,0-.7.2-1,.3,0,0,0,0,0,.1M276.3,90c-.1,0-.2,0-.3.1-.2,0-.2.3,0,.4,0,0,.2,0,.3.1.6.2.6-.9,0-.7M288,93.3c0,0-.3.2-.2.3,0,.1,0,.2.2.3.2.1.5,0,.5-.3s-.3-.4-.5-.3M294.6,97.4c.1.1.2.2.4.3.2.1.6,0,.5-.3,0-.2,0-.4-.1-.6-.4-.6-1.3.2-.8.6M290.8,21.3c0-.4-.5-.4-.8-.2-1,.9-4.2-4.2-5.2-4.6,0,0-.1,0,0,0,1.5,1.4,2.2,3.3,3.8,4.6.4.3,1.2.4,1.4.8.4.7.9,1,1.7.7.2,0,.1-.3,0-.4-.3-.2-.8-.7-.8-1M294.6,23.9c-.4,0-.8,0-1.2,0,0,0,0,.1,0,.2.4.1.8.2,1.2.3.4.1.7.3,1.1.1.1,0,.1-.2,0-.3-.3-.3-.8-.3-1.2-.3M303.1,30.9c-1.2-.9-2.5-1.5-3.8-2.3,0,0-.1,0,0,0,1.2.9,2.4,1.7,3.5,2.6.6.5.9,1,1.3,1.7.2.4.5.5.9.5.2,0,.3-.2.3-.4-.1-.9-1.4-1.7-2.1-2.3M332.5,31.3c.6,0,.6-1,0-1-1.5,0-2.2-1.5-3.4-2-1.8-.7-3.5-1.5-5.1-2.5-3-1.9-6.2-4.3-9.5-5.6,0,0,0,0,0,0,3.8,1.8,7.1,4.7,10.7,6.9,1.7,1,3.5,1.5,5,2.9.7.7,1.4,1.1,2.4,1.1M335.8,32.5c.7,0,.7-1,0-1.1-.3,0-.5,0-.7.3-.2.2-.2.5,0,.6.2.2.4.3.7.3M293,33.8c0,0,0-.2,0-.2-.1-.2-.4-.3-.7-.4-.3,0-.4.3-.2.4.2.2.7.4.9.2M311.7,60.6c.3,0,.5,0,.8,0,.8-.2.3-1.5-.4-1-.3.2-.4.4-.6.6-.1.2,0,.4.2.4M305.5,69c-.5,1.7,1.3,3.3-.4,4.6,0,0,0,.2,0,.2,1.1-.3,1.3-1.3,1.5-2.3.1-.6.5-2.4,0-2.8-1.4-1.1-3.1-4.9-5.3-4.3,0,0,0,0,0,0,1.5,0,4.7,3,4.2,4.6M301.4,80.7c.4,0,.8-.2,1.1-.4.4-.2.5-.5.8-.8.5-.1.6-.9.9-1.3,0-.2,0-.3-.2-.3-.4,0-1.3.7-1.3,1.2,0,.6-.9,1.1-1.4,1.4-.2,0,0,.3.1.3M304.7,76.4c.3-.1.3-.4.4-.6.2-.4-.3-.8-.7-.5-.2.2-.3.4-.3.7,0,.3.3.5.5.4M307.3,73.9c.1.1.3.1.5,0,0,0,0,0,.1,0,0,0,.2.2.3.3,0,.2,0,.4.2.6,0,0,.2,0,.2.1h0s0,0,0,0c.2.2.5,0,.6-.2.2-.4,0-.8-.5-1-.2,0-.4,0-.5.2,0,0,0,0,0,0,0,0,0-.1-.1-.2-.1-.1,0-.2,0-.4,0-.2-.2-.3-.4-.4-.4-.2-1,.4-.6.7,0,0,.2.1.2.2M329.3,69.6c0,0,.1-.1.2-.2,0,0,.1.1.3.2.6,0,1-.3,1.3-.8.3-.6.9-1.3,1.5-1.8.2-.1,0-.4-.2-.3-.5.3-.9.8-1.3,1.2-.2.3-.6.4-.8.6-.2.1-.4.4-.6.5,0,0-.1.2-.1.3,0,0-.2.2-.2.2,0,0,0,0,0,0M346.8,93.2c.8,0,1.4-.8,2.1-1.3.1.1.3.1.5,0,1-.9,2.3-1.9,2.5-3.3,0,0,0-.1-.1,0-.8,1-1.8,1.7-2.6,2.6,0,0,0,0-.1,0-.8.6-1.4,1.3-2.2,1.8,0,0,0,.1,0,.1M230.5,78.3c-1.9-.5-3.8-1-5.7-1.8-1.5-.6-5.4-1.4-6-3,0-.2-.3-.3-.5-.3-.8.2-2-6.7-2.2-7.5,0,0,0,0,0,0,.2,1.7.4,3.5.8,5.2.2.9.3,2.7,1.4,3.1.3,0,0,.5.4.9.7.6,1.4,1,2.2,1.1,3.3.4,6.3,2.5,9.6,2.6.2,0,.2-.3,0-.3M251.4,86.7c.2,0,.2-.4,0-.4-2.2-.5-4.3-.2-6.5-.9-2.3-.8-4.2-2.6-6.6-3,0,0,0,0,0,0,2.4.6,4.2,2.5,6.5,3.4,2.7,1.1,3.8,1.8,6.6.8M220.7,36.1c-.1,0-.3.2-.3.3,0,0,0,0,0,.1,0,0,0,0,0,.1-.4.8-1.1,1.8-.3,2.4,0,0,0,0,0,0,0-.7.4-1.3.8-1.9.1,0,.3,0,.4-.1,1.2-1.1,2.3-2.1,3.7-2.9,2.1-1.3,4.8-1.1,7.1-1.9.2,0,.1-.3,0-.3-4.2,1.2-8.3.7-11.2,4.2M253.8,28.6c-.9,0-1.8.2-2.7.3,0,0,0,0,0,0,.7.2,1.6.2,2.3.2s1.5.2,2.1-.1c0,0,0-.2,0-.3-.5-.4-1.1-.2-1.7-.2M379.8,85.8c-3.8.6-7.3,1.6-11.2,1.8,0,0,0,0,0,0,3.2.3,6.3-.2,9.5-.8,2-.4,3.7-.2,5.7-.3,1.4,0,2.1-.2,3.1-1.1.2-.2.1-.6-.2-.6-2.2-.4-4.8.5-7,.9M392.8,84.3c1.8.2,13.1.5,12.2-3,0-.2-.2-.2-.4,0l-1,.4c-.4,0-.9.4-.7.9.3.7-4.3,1.3-5.1,1.4-1.6.2-3.3.4-5,.3,0,0,0,.1,0,.1M398.2,82c1.2.2,2.7.5,3.7-.4.3-.3,0-.7-.4-.7-1.1.3-2.2.9-3.3.9,0,0-.1.1,0,.1M173.3,79.3c5.5.7,11,1,16.5,1.5,2.8.3,5.5.7,8.3,1.1,1.3.2,2.5.6,3.8.2.3,0,.3-.4,0-.5-1-.8-1.9-.3-3.1-.5-2.7-.3-5.3-.7-8-1-5.8-.5-11.7-.6-17.5-1,0,0,0,0,0,0M203.7,82c-.1.2,0,.4.2.4.2,0,.5,0,.7,0,.2,0,.5-.2.5-.5,0-.3-.3-.5-.6-.4-.3,0-.5.1-.8.4"/>
    <path class="cls-1" d="M198.9,225.2c0,.7,0,1.5-.1,2.4,0,.9,0,1.7,0,2.5,0,.8,0,1.6,0,2.3,0,.7,0,1.2,0,1.7s0,.9.2,1.1c.1.2.4.3.7.3h.4c.1,0,.2,0,.3,0,.1,0,.2,0,.4,0h0c0,0-.2,1-.2,1-.3,0-.7,0-1,0-.3,0-.6,0-.9,0-.3,0-.6,0-.8,0s-.5,0-.8,0c-.3,0-.5,0-.8,0-.3,0-.5,0-.8.1v-.9c.8-.1,1.2-.3,1.4-.5.2-.2.3-.6.3-1.2v-8.6c0-.4,0-.7-.1-.9,0-.1-.3-.2-.6-.2s-.2,0-.3,0c-.1,0-.2,0-.3,0-.1,0-.2,0-.3,0h0c0,0,.1-1,.1-1,.3,0,.6,0,.9,0,.3,0,.5,0,.8,0h.7c.2,0,.5,0,.8,0,.3,0,.5,0,.8,0,.3,0,.5,0,.8,0v.9c-.7,0-1,.2-1.2.3-.2.2-.3.4-.3.8"/>
    <path class="cls-1" d="M215.6,233.3v-8.3c0-.6-.2-.9-.7-.9s-.2,0-.3,0c-.1,0-.2,0-.3,0h-.3c0,0,.2-1,.2-1,.2,0,.5,0,.7,0,.2,0,.4,0,.6,0,.2,0,.4,0,.6,0s.4,0,.7,0c.2,0,.5,0,.7,0,.2,0,.5,0,.7,0v.9c-.6,0-.9.2-1.1.4-.2.2-.3.5-.4.9l-.3,11.5-.6.3c-1-1.6-2-3-2.9-4.4-.9-1.4-1.7-2.5-2.4-3.6-.8-1.2-1.6-2.3-2.3-3.3h0v8.7c0,.3,0,.5,0,.6.1.1.3.2.5.2h.6c.1,0,.3,0,.5,0h0c0,0-.2,1-.2,1-.2,0-.5,0-.8,0-.2,0-.5,0-.7,0-.3,0-.5,0-.7,0s-.4,0-.6,0c-.2,0-.4,0-.6,0-.2,0-.4,0-.6,0v-.9c.5,0,.8-.2,1-.4.2-.2.3-.5.3-.9l.3-8.9c0-.4-.1-.7-.4-.9-.2-.2-.7-.3-1.4-.4h0c0,0,.2-.9.2-.9.2,0,.4,0,.7,0,.2,0,.4,0,.6,0,.2,0,.4,0,.5,0s.3,0,.5,0c.2,0,.3,0,.4,0,.2,0,.3,0,.4,0,.9,1.3,1.7,2.6,2.5,3.8.8,1.2,1.6,2.3,2.2,3.2.8,1.1,1.5,2.1,2.2,3.1h0Z"/>
    <path class="cls-1" d="M226,236.5c-.5,0-.9,0-1.3,0-.4,0-.7-.1-1-.2-.3,0-.6-.2-.9-.3v-.2c0-.3,0-.7,0-1.1,0-.3,0-.7,0-1.1,0-.4,0-.9,0-1.4h.9c0,.6,0,1.2.1,1.7,0,.5.2.8.4,1.1.2.2.5.4.8.5.3,0,.8.1,1.4.1.9,0,1.6-.2,2.1-.6.5-.4.8-1,.8-1.7s0-.6-.3-.9c-.2-.3-.4-.5-.7-.7-.3-.2-.6-.4-1-.6-.4-.2-.8-.4-1.2-.6-.4-.2-.8-.4-1.2-.7-.4-.2-.8-.5-1.1-.8-.3-.3-.6-.6-.8-.9-.2-.4-.3-.8-.3-1.2s.1-1,.4-1.5c.2-.5.6-.9,1-1.2.4-.3.9-.6,1.5-.8.6-.2,1.2-.3,1.9-.3s.9,0,1.3,0c.4,0,.7.1,1,.2.3,0,.6.2.9.3h0c0,.4-.1.8-.2,1.1,0,.3-.1.7-.1,1.1,0,.4,0,.9-.1,1.3h-.8c0,0-.1,0-.1,0,0,0,0-.2,0-.3,0,0,0-.2,0-.3,0-.1,0-.3,0-.4,0-.7-.2-1.2-.5-1.5-.4-.3-1-.4-1.9-.4s-1.4.2-1.9.6c-.5.4-.7.8-.7,1.4s0,.6.2.8c.1.3.4.5.6.7.3.2.6.4.9.6.3.2.7.4,1.1.6.4.2.9.5,1.4.7.4.2.9.5,1.2.8.4.3.7.6.9,1,.2.4.3.8.3,1.2s-.1,1.1-.4,1.6c-.3.5-.6.9-1.1,1.3-.4.4-1,.6-1.6.8-.6.2-1.3.3-2,.3"/>
    <path class="cls-1" d="M239.6,234.3c.6.7,1.4,1.1,2.5,1.1s2-.3,2.6-.9c.6-.6.9-1.4.9-2.6v-.7c0-.3,0-.6,0-1,0-.4,0-.7,0-1.1,0-.4,0-.8,0-1.1,0-.9,0-1.8,0-2.8,0-.5,0-.8-.2-.9,0-.1-.3-.2-.6-.2s-.2,0-.2,0c-.1,0-.2,0-.3,0,0,0-.2,0-.3,0h0c0,0,.1-1,.1-1,.3,0,.6,0,.9,0,.2,0,.5,0,.8,0h.7c.2,0,.4,0,.7,0,.2,0,.5,0,.6,0,.2,0,.4,0,.7-.1v.9c-.4,0-.6,0-.8.1-.2,0-.3.1-.4.2,0,0-.2.2-.2.3,0,.1,0,.3,0,.5v6.9c0,1.4-.4,2.6-1.3,3.3-.9.8-2.1,1.2-3.7,1.2s-2.6-.4-3.3-1.2c-.8-.8-1.1-1.9-1.1-3.3v-6.8c0-.4,0-.7-.1-.9,0-.1-.3-.2-.6-.2s-.1,0-.2,0c0,0-.2,0-.2,0,0,0-.2,0-.3,0h0c0,0,.1-1,.1-1,.3,0,.6,0,.9,0,.2,0,.5,0,.8,0h.7c.2,0,.4,0,.7,0,.3,0,.5,0,.7,0,.3,0,.5,0,.7-.1v.9c-.3,0-.6,0-.7.1-.2,0-.3.1-.4.2,0,0-.2.2-.2.3,0,.1,0,.3,0,.5l-.2,6c0,1.4.3,2.4.9,3.1"/>
    <path class="cls-1" d="M255.9,230.7v3c0,.4,0,.7,0,.9,0,.2.1.4.2.5.1.1.2.2.4.2.2,0,.5,0,.8,0h0c0,0-.2.9-.2.9-.3,0-.5,0-.7,0-.2,0-.5,0-.7,0-.2,0-.5,0-.7,0h-.8c-.3,0-.5,0-.8,0-.3,0-.5,0-.8,0l.2-.9c.3,0,.6,0,.8-.2.2,0,.4-.1.5-.3.1-.1.2-.3.2-.5,0-.2,0-.4,0-.7v-8.6c0-.4,0-.7-.1-.9-.1-.1-.3-.2-.6-.2s-.1,0-.2,0c0,0-.1,0-.2,0,0,0-.1,0-.2,0h0c0,0,.1-1,.1-1,.3,0,.6,0,.8,0,.2,0,.5,0,.8,0h.7c.2,0,.4,0,.7,0,.3,0,.6,0,.8,0,.3,0,.7,0,1,0,1.3,0,2.3.3,3,.9.7.6,1.1,1.4,1.1,2.4s-.3,1.6-.8,2.3c-.5.7-1.3,1.2-2.2,1.7l2.3,3.6c.2.3.4.6.6.8.2.2.4.4.6.5.2.1.4.2.7.3.2,0,.5,0,.7,0h0c0,0-.1.8-.1.8l-1.7.2c-.3,0-.7-.2-1.1-.5-.4-.3-.7-.8-1.1-1.4l-2.2-4h-1.7ZM258.1,229.8c.4-.1.8-.3,1.1-.6.3-.2.5-.5.8-.9.2-.4.4-.9.4-1.5,0-1.8-1.2-2.7-3.8-2.7s-.2,0-.3,0c0,0,0,.2,0,.4,0,.5,0,1,0,1.5,0,.5,0,.9,0,1.3,0,.4,0,.8,0,1.2,0,.4,0,.7,0,1.1l2.1.2Z"/>
    <path class="cls-1" d="M276.7,234c0,.3.2.5.3.6.1.2.2.3.4.4.2.1.3.2.5.3.2,0,.5,0,.8.1h0c0,0-.2.9-.2.9-.3,0-.6,0-.8,0-.2,0-.5,0-.7,0-.3,0-.5,0-.7,0-.4,0-.8,0-1.1,0-.4,0-.7,0-1,0-.3,0-.7,0-.9,0h0c0-.1,0-.9,0-.9.7,0,1.2-.1,1.4-.2.3-.1.4-.3.4-.5s0-.6-.2-1l-.7-2.2h-.5c-.2,0-.4,0-.6,0h-1.1c-.4,0-.8,0-1.2,0-.4,0-.7,0-1,.1l-.8,2.1c-.1.4-.2.6-.2.8,0,.3,0,.5.3.6.2.1.5.2.9.2h1.2c0,0-.1,1-.1,1-.3,0-.6,0-.9,0-.3,0-.6,0-.9,0-.3,0-.7,0-1,0s-.5,0-.8,0c-.3,0-.5,0-.7,0-.3,0-.5,0-.8,0v-1c.5,0,.8-.2,1.1-.4.2-.2.5-.6.7-1.2l4-10.4,1.3-.3h.2c.3,1.2.7,2.5,1,3.8.1.5.3,1.1.5,1.7.2.6.4,1.2.6,1.8.2.6.4,1.2.6,1.9.2.6.4,1.2.6,1.8M270.3,230.7h1.8c.3,0,.6,0,1,0,.4,0,.7,0,.9,0l-1.6-5.4h-.1l-2,5.5Z"/>
    <path class="cls-1" d="M292.4,233.3v-8.3c0-.6-.2-.9-.7-.9s-.2,0-.3,0c0,0-.2,0-.2,0h-.3c0,0,.2-1,.2-1,.2,0,.5,0,.7,0,.2,0,.4,0,.6,0,.2,0,.4,0,.6,0s.4,0,.7,0c.2,0,.4,0,.7,0,.2,0,.5,0,.7,0v.9c-.6,0-.9.2-1.1.4-.2.2-.3.5-.3.9l-.3,11.5-.6.3c-1-1.6-2-3-2.9-4.4-.9-1.4-1.7-2.5-2.4-3.6-.8-1.2-1.6-2.3-2.3-3.3h-.1v8.7c0,.3,0,.5,0,.6,0,.1.3.2.5.2h.6c.1,0,.3,0,.4,0h0c0,0-.2,1-.2,1-.3,0-.5,0-.8,0-.2,0-.5,0-.7,0-.3,0-.5,0-.7,0s-.4,0-.6,0c-.2,0-.4,0-.6,0-.2,0-.4,0-.6,0v-.9c.5,0,.8-.2,1-.4.2-.2.3-.5.3-.9l.3-8.9c0-.4-.1-.7-.4-.9-.3-.2-.7-.3-1.4-.4h0c0,0,.2-.9.2-.9.2,0,.4,0,.7,0,.2,0,.4,0,.6,0,.2,0,.4,0,.5,0s.3,0,.5,0c.2,0,.3,0,.4,0,.2,0,.3,0,.4,0,.9,1.3,1.7,2.6,2.5,3.8.8,1.2,1.5,2.3,2.2,3.2.7,1.1,1.5,2.1,2.2,3.1h.1Z"/>
    <path class="cls-1" d="M305.3,236.5c-.9,0-1.8-.1-2.5-.4-.8-.3-1.4-.7-1.9-1.3-.5-.5-.9-1.2-1.2-2-.3-.8-.4-1.7-.4-2.6s.2-2,.5-2.9c.4-.9.9-1.6,1.5-2.3.6-.6,1.4-1.1,2.3-1.5.9-.4,1.8-.5,2.9-.5s.8,0,1.3,0c.4,0,.8.1,1.2.2.4,0,.8.2,1.1.3h0c0,.4-.1.8-.2,1.1,0,.3-.1.7-.2,1.1,0,.4,0,.9-.1,1.3h-1s0-.1,0-.3c0,0,0-.2,0-.3,0-.1,0-.2,0-.3,0-1.3-1-1.9-3-1.9s-1.3.1-1.9.4c-.6.3-1,.6-1.4,1.1-.4.5-.7,1-.9,1.7-.2.7-.3,1.4-.3,2.2s.1,1.7.3,2.5c.2.7.5,1.4,1,1.9.4.5.9.9,1.5,1.2.6.3,1.2.4,1.9.4s1.7-.3,2.3-.8c.5-.5,1-1.3,1.2-2.4h1c0,.3-.2.7-.2,1,0,.3-.1.7-.2,1.1,0,.4-.1.8-.1,1.1v.2c-.5.1-.9.3-1.3.4-.4,0-.8.2-1.3.3-.5,0-1.1.1-1.7.1"/>
    <path class="cls-1" d="M318.2,234.1c0,.3,0,.5,0,.6,0,.2,0,.3.2.4.1,0,.3.1.5.2.2,0,.5,0,.9,0,.8,0,1.5,0,1.9,0,.5,0,.9-.2,1.1-.3.3-.2.5-.4.6-.8.1-.3.2-.8.3-1.3h.9c0-.1,0,0,0,0,0,.3-.1.7-.2,1.1,0,.3-.1.7-.2,1.1,0,.4-.1.8-.1,1.3h-.1c-.8.1-1.6,0-2.4,0-.3,0-.7,0-1,0-.3,0-.7,0-1,0-.3,0-.7,0-1,0-.3,0-.6,0-.8,0-.4,0-.8,0-1.1,0-.3,0-.6,0-.9,0-.3,0-.6,0-.8,0v-.9c.7,0,1.2-.2,1.4-.5.2-.2.3-.6.3-1.2v-8.6c0-.4,0-.7-.1-.9,0-.1-.3-.2-.6-.2s-.1,0-.2,0c0,0-.2,0-.2,0,0,0-.2,0-.2,0h0c0,0,.1-1,.1-1,.3,0,.6,0,1,0,.3,0,.6,0,.9,0h1c.8,0,1.5,0,2.1,0,.6,0,1.2,0,1.6,0,.5,0,.9,0,1.3,0,.4,0,.7,0,1.1-.1h0c0,.4-.1.8-.2,1.1,0,.3-.1.7-.2,1.1,0,.4,0,.8-.1,1.3h-1s0-.1,0-.2c0,0,0-.2,0-.3,0,0,0-.2,0-.3,0-.3,0-.6,0-.8,0-.2-.2-.3-.4-.4-.2-.1-.5-.2-1-.2-.4,0-1,0-1.7,0s-.6,0-.8,0c-.2,0-.3,0-.4,0,0,0-.2.1-.2.2,0,.1,0,.3,0,.5l-.2,4c.2,0,.6,0,1,0,.4,0,.8,0,1.1,0s.4,0,.7,0c.3,0,.6,0,.8,0,.3,0,.6,0,1-.1h0c0,0-.3,1.3-.3,1.3-.3,0-.7,0-1,0-.3,0-.6,0-.9,0-.3,0-.6,0-.9,0s-.6,0-.9,0c-.3,0-.5,0-.7,0,0,.6,0,1,0,1.4,0,.4,0,.8,0,1.1v1.4Z"/>
    <path class="cls-1" d="M336.8,223.2c.3,0,.6,0,.8,0,.2,0,.5,0,.7,0h.7c.1,0,.3,0,.6,0,.3,0,.6,0,.9,0,.3,0,.7,0,1.1,0,1.4,0,2.5.3,3.3.9.7.6,1.1,1.5,1.1,2.7s-.1,1.1-.4,1.7c-.3.5-.6,1-1,1.4-.4.4-1,.7-1.5,1-.6.2-1.1.4-1.8.4h-1.7v2c0,.5,0,.8,0,1.1,0,.3,0,.5.1.6,0,.1.2.2.3.3.1,0,.3,0,.5,0h.4c.1,0,.2,0,.4,0,.1,0,.3,0,.4,0h0c0,0-.2,1-.2,1-.3,0-.5,0-.7,0-.2,0-.4,0-.6,0-.2,0-.4,0-.6,0-.3,0-.6,0-.9,0-.3,0-.7,0-1,0-.3,0-.6,0-.8,0-.2,0-.3,0-.3,0v-.9c.4,0,.7-.1.9-.2.2,0,.3-.2.5-.3.1-.1.2-.3.2-.5,0-.2,0-.4,0-.7v-8.6c0-.4,0-.7-.1-.9,0-.1-.3-.2-.6-.2s-.1,0-.2,0c0,0-.2,0-.2,0,0,0-.2,0-.3,0h0c0,0,.1-1,.1-1ZM341.9,230.4c1.7-.3,2.5-1.3,2.5-3.2s-.3-1.8-.9-2.3c-.6-.5-1.6-.7-2.9-.7s-.4,0-.4,0c0,0,0,.1,0,.2,0,.9-.1,1.9-.2,2.8,0,1,0,1.9,0,2.8l2.2.3Z"/>
    <path class="cls-1" d="M353.3,236.3c-.4,0-.8,0-1.1,0-.3,0-.6,0-.9,0-.3,0-.6,0-.8,0v-.9c.7,0,1-.2,1.2-.5.2-.2.3-.6.3-1.2v-8.6c0-.4,0-.7-.1-.9-.1-.1-.3-.2-.6-.2s-.1,0-.2,0c0,0-.2,0-.2,0,0,0-.2,0-.2,0h0c0,0,.2-1,.2-1,.3,0,.6,0,.9,0,.2,0,.5,0,.7,0h.7c.2,0,.5,0,.7,0,.3,0,.5,0,.7,0,.2,0,.5,0,.8,0v.9c-.4,0-.7,0-.9.2-.2,0-.3.2-.4.3,0,.1-.1.3-.1.6,0,.2,0,.5,0,.9,0,.6,0,1.3-.1,2,0,.7,0,1.4,0,2.2,0,.7,0,1.4,0,2,0,.6,0,1.2,0,1.7s0,.6,0,.8c0,.2.1.4.2.5.1.1.3.2.5.2.2,0,.5,0,.9,0,.6,0,1.1,0,1.4-.1.4,0,.7-.2.9-.4.2-.2.4-.5.6-.9.1-.4.2-.9.4-1.5h.9c0,0,0,0,0,0,0,.4-.1.8-.2,1.2,0,.3-.1.8-.2,1.2,0,.5-.1,1-.2,1.5h0c-.7,0-1.4,0-2,0-.6,0-1.2,0-1.8,0-.6,0-1.2,0-1.7,0"/>
    <path class="cls-1" d="M369.1,236.5c-.9,0-1.8-.1-2.5-.4-.8-.3-1.4-.7-1.9-1.3-.5-.5-.9-1.2-1.2-2-.3-.8-.4-1.7-.4-2.6s.2-2,.5-2.9c.4-.9.8-1.6,1.5-2.3.6-.6,1.4-1.1,2.3-1.5.9-.4,1.8-.5,2.9-.5s.8,0,1.3,0c.4,0,.8.1,1.1.2.4,0,.8.2,1.2.3h0c0,.4-.1.8-.2,1.1,0,.3-.1.7-.2,1.1,0,.4-.1.9-.1,1.3h-1s0-.1,0-.3c0,0,0-.2,0-.3v-.3c0-1.3-1-1.9-3-1.9s-1.3.1-1.9.4c-.6.3-1,.6-1.4,1.1-.4.5-.7,1-.9,1.7-.2.7-.3,1.4-.3,2.2s.1,1.7.3,2.5c.2.7.5,1.4,1,1.9.4.5.9.9,1.5,1.2.6.3,1.2.4,1.9.4s1.7-.3,2.3-.8c.6-.5,1-1.3,1.2-2.4h1c0,.3-.1.7-.2,1,0,.3-.1.7-.2,1.1,0,.4-.1.8-.1,1.1v.2c-.5.1-.9.3-1.3.4-.4,0-.8.2-1.3.3-.5,0-1.1.1-1.7.1"/>
  </g>
  <g>
    <path class="cls-1" d="M73.2,283.7c0,1.3.4,1.8,1.5,1.8s2.1-.1,2.1-.1v.2c0,0-.5,1.8-.5,1.8,0,0-3.2-.1-5.1-.1s-4.5.5-4.5.5l.5-1.8c2.5-.5,3.3-1.3,3.6-3.5l2.1-17.3c.2-1.7,0-2.2-1.2-2.2s-1.7,0-1.7,0c0,0,0,0,0-.1l.5-1.8c0,0,3,.2,4.6.2s4.5-.4,4.5-.4l-.4,1.8c-2.2.3-2.9.8-3.1,2.3-1.3,7.3-2.9,17.1-2.9,18.8Z"/>
    <path class="cls-1" d="M97.7,282l1.5-12.1c.1-.9-.2-1.4-.9-1.4s-1.2,0-1.2,0v-.2c0,0,.4-1.5.4-1.5,0,0,2.1.2,3.3.2s3.4-.3,3.4-.3l-.3,1.6c-1.5.2-2.2.8-2.5,2l-2.6,17.7-1.5.4c-4.9-9.3-9.4-16.8-9.4-16.8h-.2l-1.8,12.7c-.1,1,.1,1.3.9,1.3h1.7c0,.1-.5,1.7-.5,1.7,0,0-2.2-.1-3.6-.1s-3.3.2-3.3.2l.4-1.6c1.3-.2,2-.7,2.2-2l2.1-13.6c.2-1.3-.4-1.8-2.5-2,0,0,0-.1,0-.2l.4-1.3s1.9.2,3,.2,2.3-.2,2.3-.2c4.2,7.9,8.5,15.2,8.5,15.2h.2Z"/>
    <path class="cls-1" d="M121.8,282l1.5-12.1c.1-.9-.2-1.4-.9-1.4s-1.2,0-1.2,0v-.2c0,0,.4-1.5.4-1.5,0,0,2.1.2,3.3.2s3.4-.3,3.4-.3l-.3,1.6c-1.5.2-2.2.8-2.5,2l-2.6,17.7-1.5.4c-4.9-9.3-9.4-16.8-9.4-16.8h-.2l-1.8,12.7c-.1,1,.1,1.3.9,1.3h1.7c0,.1-.5,1.7-.5,1.7,0,0-2.2-.1-3.6-.1s-3.3.2-3.3.2l.4-1.6c1.3-.2,2-.7,2.2-2l2.1-13.6c.2-1.3-.4-1.8-2.5-2,0,0,0-.1,0-.2l.4-1.3s1.9.2,3,.2,2.3-.2,2.3-.2c4.2,7.9,8.5,15.2,8.5,15.2h.2Z"/>
    <path class="cls-1" d="M129.9,279c0-7.1,5.1-12.5,11.7-12.5s8.4,3.4,8.4,8.5-5.2,12.5-11.9,12.5-8.2-3.4-8.2-8.5ZM146.5,276.1c0-4.5-2.3-7.4-5.9-7.4s-7.4,4-7.4,9.6,2.3,7.4,5.8,7.4,7.6-3.9,7.6-9.6Z"/>
    <path class="cls-1" d="M152.8,268.4v-.2s.4-1.5.4-1.5c0,0,2.6.1,3.8.1,1.8,0,5-.4,5-.4v.2c0,0-.2,1.4-.2,1.4-2.5.2-2.9.5-2.9,1.4,0,1.6,2.1,14.3,2.1,14.3h.3c2-4.1,6.8-13.5,6.8-14.5s-.6-1.1-1.9-1.1h-1.6v-.2c0,0,.3-1.5.3-1.5,0,0,2.5.2,4.6.2s3.6-.1,3.6-.1l-.4,1.6c-1.3,0-1.6.3-2.2,1.5l-8.6,17-2.9.7s-1.8-9.7-3.4-17.4c-.2-1.3-1.1-1.8-2.7-1.9Z"/>
    <path class="cls-1" d="M190.7,285.7h0c0,.1-.4,1.5-.4,1.5,0,0-2.4,0-3.6,0-2.5,0-4.9.3-4.9.3v-.2c0,0,.2-1.4.2-1.4,2.4-.2,2.9-.4,2.9-1.5s0-.7-.1-1.1l-.5-3.2c-.7,0-2.4,0-3.3,0s-2.7.2-3.4.2l-1.5,3.1c-.3.6-.5,1-.5,1.3,0,.7.5,1.1,1.7,1.1h1.8c0,.1-.3,1.6-.3,1.6,0,0-2.4-.2-4.5-.2s-3.6,0-3.6,0l.5-1.6c1.2-.1,1.9-.7,2.7-2.4l8.1-16.2,2.7-.6h.3s1.6,10.2,3,16.9c.3,1.6.9,2.1,2.7,2.3ZM178.6,278.4h2.7c.8,0,2.1,0,2.9-.2l-1.4-8h-.3l-3.9,8.2Z"/>
    <path class="cls-1" d="M200.9,268.4c-4.3.1-4.8,0-5.8,4l-1.8.2s.7-3,1.1-5.8l.4-.3,2.7.4h10l2.9-.4.3.3c-.2,2.8-.2,5.6-.2,5.6l-1.8.2c0-4.1-.6-4-4.6-4.2-.5,2.6-2.4,14.2-2.4,15.6s.5,1.6,1.6,1.6,1.8,0,1.8,0h0c0,.1-.5,1.8-.5,1.8,0,0-3.3-.1-4.9-.1s-4.6.2-4.6.2l.4-1.5c3.1-.3,3.3-.7,3.7-3.8l1.7-13.6Z"/>
    <path class="cls-1" d="M217.3,284.3c0,1,.4,1.3,1.2,1.3s1.6,0,1.6,0h0c0,.1-.5,1.7-.5,1.7,0,0-2.8,0-4.3,0s-3.9.4-3.9.4l.4-1.6c2-.4,2.7-1,2.9-2.7l1.6-13.1c.2-1.3,0-1.7-1-1.7s-1.3,0-1.3,0c0,0,0,0,0-.2l.4-1.5c.2,0,2.6.1,4,.1s3.9-.3,3.9-.3l-.4,1.6c-1.8.2-2.2.6-2.5,1.8-.9,5.3-2.2,13-2.2,14.3Z"/>
    <path class="cls-1" d="M224.6,279c0-7.1,5.1-12.5,11.7-12.5s8.4,3.4,8.4,8.5-5.2,12.5-11.9,12.5-8.2-3.4-8.2-8.5ZM241.3,276.1c0-4.5-2.3-7.4-5.9-7.4s-7.4,4-7.4,9.6,2.3,7.4,5.8,7.4,7.6-3.9,7.6-9.6Z"/>
    <path class="cls-1" d="M263.7,282l1.5-12.1c.1-.9-.2-1.4-.9-1.4s-1.2,0-1.2,0v-.2c0,0,.4-1.5.4-1.5,0,0,2.1.2,3.3.2s3.4-.3,3.4-.3l-.3,1.6c-1.5.2-2.2.8-2.5,2l-2.6,17.7-1.5.4c-4.9-9.3-9.4-16.8-9.4-16.8h-.2l-1.8,12.7c-.1,1,.1,1.3.9,1.3h1.7c0,.1-.5,1.7-.5,1.7,0,0-2.2-.1-3.6-.1s-3.3.2-3.3.2l.4-1.6c1.3-.2,2-.7,2.2-2l2.1-13.6c.2-1.3-.4-1.8-2.5-2,0,0,0-.1,0-.2l.4-1.3s1.9.2,3,.2,2.3-.2,2.3-.2c4.2,7.9,8.5,15.2,8.5,15.2h.2Z"/>
    <path class="cls-1" d="M285.3,283.7c0,1.3.4,1.8,1.5,1.8s2.1-.1,2.1-.1v.2c0,0-.5,1.8-.5,1.8,0,0-3.2-.1-5.1-.1s-4.5.5-4.5.5l.5-1.8c2.5-.5,3.3-1.3,3.6-3.5l2.1-17.3c.2-1.7,0-2.2-1.2-2.2s-1.7,0-1.7,0c0,0,0,0,0-.1l.5-1.8c0,0,3,.2,4.6.2s4.5-.4,4.5-.4l-.4,1.8c-2.2.3-2.9.8-3.1,2.3-1.3,7.3-2.9,17.1-2.9,18.8Z"/>
    <path class="cls-1" d="M309.9,282l1.5-12.1c.1-.9-.2-1.4-.9-1.4s-1.2,0-1.2,0v-.2c0,0,.4-1.5.4-1.5,0,0,2.1.2,3.3.2s3.4-.3,3.4-.3l-.3,1.6c-1.5.2-2.2.8-2.5,2l-2.6,17.7-1.5.4c-4.9-9.3-9.4-16.8-9.4-16.8h-.2l-1.8,12.7c-.1,1,.1,1.3.9,1.3h1.7c0,.1-.5,1.7-.5,1.7,0,0-2.2-.1-3.6-.1s-3.3.2-3.3.2l.4-1.6c1.3-.2,2-.7,2.2-2l2.1-13.6c.2-1.3-.4-1.8-2.5-2,0,0,0-.1,0-.2l.4-1.3s1.9.2,3,.2,2.3-.2,2.3-.2c4.2,7.9,8.5,15.2,8.5,15.2h.2Z"/>
    <path class="cls-1" d="M331.4,283.7c0,1.3.4,1.8,1.5,1.8s2.1-.1,2.1-.1v.2c0,0-.5,1.8-.5,1.8,0,0-3.2-.1-5.1-.1s-4.5.5-4.5.5l.5-1.8c2.5-.5,3.3-1.3,3.6-3.5l2.1-17.3c.2-1.7,0-2.2-1.2-2.2s-1.7,0-1.7,0c0,0,0,0,0-.1l.5-1.8c0,0,3,.2,4.6.2s4.5-.4,4.5-.4l-.4,1.8c-2.2.3-2.9.8-3.1,2.3-1.3,7.3-2.9,17.1-2.9,18.8Z"/>
    <path class="cls-1" d="M356,282l1.5-12.1c.1-.9-.2-1.4-.9-1.4s-1.2,0-1.2,0v-.2c0,0,.4-1.5.4-1.5,0,0,2.1.2,3.3.2s3.4-.3,3.4-.3l-.3,1.6c-1.5.2-2.2.8-2.5,2l-2.6,17.7-1.5.4c-4.9-9.3-9.4-16.8-9.4-16.8h-.2l-1.8,12.7c-.1,1,.1,1.3.9,1.3h1.7c0,.1-.5,1.7-.5,1.7,0,0-2.2-.1-3.6-.1s-3.3.2-3.3.2l.4-1.6c1.3-.2,2-.7,2.2-2l2.1-13.6c.2-1.3-.4-1.8-2.5-2,0,0,0-.1,0-.2l.4-1.3s1.9.2,3,.2,2.3-.2,2.3-.2c4.2,7.9,8.5,15.2,8.5,15.2h.2Z"/>
    <path class="cls-1" d="M363.6,286.5v-.4c-.1,0,.6-2.5,1-5.5l1.7-.2c-.6,4.4,0,5.3,3.4,5.3s4.7-1.4,4.7-3.5-1.6-2.7-3.5-3.7c-2.5-1.4-5.3-2.8-5.3-5.5s3.5-6.5,8.1-6.5,5.2.8,5.2.8v.2c0,0-.7,2.5-1.3,5.4h-1.5c0,.1-.2,0-.2,0,0,0,.3-1.3.3-2.2,0-1.7-.9-2.3-3.4-2.3s-4.3,1.3-4.3,3.1,1.1,2.2,2.5,3.1c2.7,1.6,6.6,3,6.6,6.2s-3.5,6.6-8.6,6.6-5.4-1.1-5.4-1.1Z"/>
    <path class="cls-1" d="M386.9,279.3c0,.5,0,1.1,0,1.5,0,3,1.5,4.7,4.4,4.7s5.4-1.8,5.7-5.1c.3-2.2,1.1-10.3,1.1-10.3,0-1.5,0-1.7-.9-1.7s-1.3,0-1.3,0h0c0-.1.4-1.7.4-1.7,0,0,2.4.1,3.6.1s3.4-.3,3.4-.3l-.4,1.6c-1.8.2-2.2.5-2.4,1.8l-1.3,10.5c-.6,4.5-3.8,7.1-8.9,7.1s-6.4-2-6.4-5.7c0-.4,0-.9,0-1.3l1.3-10.4c.1-1.4,0-1.7-1-1.7s-1.1,0-1.1,0h0c0-.1.4-1.7.4-1.7,0,0,2.5.1,3.8.1s3.5-.3,3.5-.3l-.3,1.6c-1.6.2-2,.6-2.2,1.8l-1.4,9.3Z"/>
    <path class="cls-1" d="M410.6,278.6l-.7,4.5c-.3,2.3,0,2.6,2,2.6h0c0,.1-.5,1.6-.5,1.6,0,0-2.1,0-3.6,0-1.7,0-3.9.1-3.9.1l.5-1.6c2-.2,2.5-.7,2.7-2.5l1.6-13.1c.2-1.3,0-1.7-.9-1.7s-1.1,0-1.1,0v-.2c-.1,0,.3-1.5.3-1.5,0,0,2.4.1,3.6.1s3.8-.2,3.8-.2c3.9,0,6.5,1.7,6.5,4.5s-1.7,5.2-5.2,6.6l2.7,5.3c1,2,1.9,2.7,3.6,2.7v.2c.1,0-.2,1.2-.2,1.2l-3,.3c-1.2,0-2.3-1.1-3.1-3l-2.5-6.1h-2.9ZM414.2,277c.1,0,3.9-1.1,3.9-5.1s-1.7-3.5-5.2-3.5-.5.2-.7.7c-.7,3.3-.9,5.4-1.2,7.5l3.2.3Z"/>
    <path class="cls-1" d="M442.6,285.7h0c0,.1-.4,1.5-.4,1.5,0,0-2.4,0-3.6,0-2.5,0-4.9.3-4.9.3v-.2c0,0,.2-1.4.2-1.4,2.4-.2,2.9-.4,2.9-1.5s0-.7-.1-1.1l-.5-3.2c-.7,0-2.4,0-3.3,0s-2.7.2-3.4.2l-1.5,3.1c-.3.6-.5,1-.5,1.3,0,.7.5,1.1,1.7,1.1h1.8c0,.1-.3,1.6-.3,1.6,0,0-2.4-.2-4.5-.2s-3.6,0-3.6,0l.5-1.6c1.2-.1,1.9-.7,2.7-2.4l8.1-16.2,2.7-.6h.3s1.6,10.2,3,16.9c.3,1.6.9,2.1,2.7,2.3ZM430.5,278.4h2.7c.8,0,2.1,0,2.9-.2l-1.4-8h-.3l-3.9,8.2Z"/>
    <path class="cls-1" d="M461.4,282l1.5-12.1c.1-.9-.2-1.4-.9-1.4s-1.2,0-1.2,0v-.2c0,0,.4-1.5.4-1.5,0,0,2.1.2,3.3.2s3.4-.3,3.4-.3l-.3,1.6c-1.5.2-2.2.8-2.5,2l-2.6,17.7-1.5.4c-4.9-9.3-9.4-16.8-9.4-16.8h-.2l-1.8,12.7c-.1,1,.1,1.3.9,1.3h1.7c0,.1-.5,1.7-.5,1.7,0,0-2.2-.1-3.6-.1s-3.3.2-3.3.2l.4-1.6c1.3-.2,2-.7,2.2-2l2.1-13.6c.2-1.3-.4-1.8-2.5-2,0,0,0-.1,0-.2l.4-1.3s1.9.2,3,.2,2.3-.2,2.3-.2c4.2,7.9,8.5,15.2,8.5,15.2h.2Z"/>
    <path class="cls-1" d="M469.4,279c0-7.3,5.2-12.5,12.4-12.5s6,.8,6,.8v.2c.1,0-.8,2.4-1.4,5.5l-1.9.2s.3-1.3.3-2c0-1.7-1.3-2.6-4.1-2.6-4.6,0-7.8,3.7-7.8,9.6s2.2,7.5,5.9,7.5,4.6-1.5,5.8-4.9l1.9-.2s-1,3-1.5,5.3l-.2.3s-2.7,1.3-6.5,1.3-8.8-3.3-8.8-8.5Z"/>
    <path class="cls-1" d="M497.9,285.5c4.9,0,5.5-.4,6.5-3.8l1.7-.2v.2c0,0-.8,2.7-1.5,5.5l-.2.2s-6.5-.2-9.8-.2-4.7.3-4.7.3l.4-1.6c1.9-.2,2.5-.9,2.8-2.7l1.6-13c.2-1.4,0-1.7-.9-1.7s-1.1,0-1.1,0v-.2c0,0,.3-1.5.3-1.5,0,0,2.7.1,4.8.1,5,0,7.6-.1,9.7-.4v.2c0,0-.7,2.5-1.3,5.4h-1.8c0,.1.3-1.1.3-1.8,0-1.4-.8-1.6-4.5-1.6s-2.1,0-2.3,1.2l-1,5.9c.7,0,2.3,0,3.2,0s3.9-.3,3.9-.3v.2c.1,0-.6,2.1-.6,2.1,0,0-2.7,0-4.4,0s-2,.1-2.5.2c-.4,3.2-.9,5.3-.9,6.4s.5,1.2,2.3,1.2Z"/>
  </g>
</svg>